<?xml version="1.0" encoding="utf-8"?>
<!-- Generator: Adobe Illustrator 22.0.1, SVG Export Plug-In . SVG Version: 6.00 Build 0)  -->
<svg version="1.1" id="Capa_1" xmlns="http://www.w3.org/2000/svg" xmlns:xlink="http://www.w3.org/1999/xlink" x="0px" y="0px"
	 viewBox="0 0 1439.1 803.6" style="enable-background:new 0 0 1439.1 803.6;" xml:space="preserve">
<style type="text/css">
	.st0{opacity:0.39;}
	.st1{clip-path:url(#SVGID_2_);}
	.st2{clip-path:url(#SVGID_4_);fill:#F5F7F8;}
	.st3{clip-path:url(#SVGID_4_);fill:#FFFFFF;}
</style>
<g class="st0">
	<defs>
		<rect id="SVGID_1_" class="st0" width="1439.1" height="803.6"/>
	</defs>
	<clipPath id="SVGID_2_">
		<use xlink:href="#SVGID_1_"  style="overflow:visible;"/>
	</clipPath>
	<g class="st1">
		<defs>
			<path id="SVGID_3_" d="M1433.1,1050.2H1c-0.6,0-1-0.4-1-1V0h1434.1v1049.2C1434.1,1049.8,1433.7,1050.2,1433.1,1050.2z"/>
		</defs>
		<clipPath id="SVGID_4_">
			<use xlink:href="#SVGID_3_"  style="overflow:visible;"/>
		</clipPath>
		<rect class="st2" width="1434.1" height="1057.5"/>
		<path class="st3" d="M188.3,309c-49.9,0-90.5-40.6-90.5-90.5s40.6-90.5,90.5-90.5c49.9,0,90.5,40.6,90.5,90.5S238.2,309,188.3,309
			z M188.3,164.2c-30,0-54.3,24.4-54.3,54.3s24.4,54.3,54.3,54.3c30,0,54.3-24.4,54.3-54.3S218.3,164.2,188.3,164.2z"/>
		
			<rect x="624.3" y="105" transform="matrix(0.7071 -0.7071 0.7071 0.7071 -294.2551 654.0565)" class="st3" width="36.2" height="1154.5"/>
		<rect x="167.8" y="288.5" class="st3" width="36.2" height="796.7"/>
		
			<rect x="196.7" y="51.9" transform="matrix(0.8353 -0.5498 0.5498 0.8353 21.7443 212.624)" class="st3" width="338.2" height="36.2"/>
		
			<rect x="-165.8" y="416.5" transform="matrix(0.8132 -0.582 0.582 0.8132 -137.4651 440.8921)" class="st3" width="1567.8" height="36.2"/>
		
			<rect x="35" y="-51.8" transform="matrix(0.7674 -0.6411 0.6411 0.7674 -34.0847 50.9018)" class="st3" width="36.2" height="248.5"/>
		
			<rect x="992.7" y="-83" transform="matrix(0.8753 -0.4836 0.4836 0.8753 -132.3565 555.4437)" class="st3" width="36.2" height="1234.8"/>
		<polygon class="st3" points="450.2,1103.5 425.2,1077.3 1007.7,523 1452.1,427.7 1459.7,463.2 1025.2,556.2 		"/>
		
			<rect x="428.6" y="53.7" transform="matrix(0.7793 -0.6267 0.6267 0.7793 -76.2958 333.8584)" class="st3" width="14.5" height="443.1"/>
		
			<rect x="522.7" y="3" transform="matrix(0.7793 -0.6267 0.6267 0.7793 -23.7379 381.6761)" class="st3" width="14.5" height="443.1"/>
		
			<rect x="602.6" y="-38" transform="matrix(0.7793 -0.6267 0.6267 0.7793 26.5806 420.2641)" class="st3" width="14.5" height="420.8"/>
		
			<rect x="537.6" y="129.2" transform="matrix(0.8173 -0.5762 0.5762 0.8173 66.2777 481.8784)" class="st3" width="511.1" height="14.5"/>
		
			<rect x="479.2" y="93.7" transform="matrix(0.8173 -0.5762 0.5762 0.8173 62.0109 397.5345)" class="st3" width="357.6" height="14.5"/>
		
			<rect x="651.4" y="589.1" transform="matrix(0.7562 -0.6544 0.6544 0.7562 -185.0767 695.9927)" class="st3" width="380" height="14.5"/>
		
			<rect x="691.7" y="420.6" transform="matrix(0.7323 -0.681 0.681 0.7323 -211.5907 632.7484)" class="st3" width="14.5" height="329.7"/>
		
			<rect x="814.3" y="769" transform="matrix(0.7794 -0.6266 0.6266 0.7794 -273.5448 775.5961)" class="st3" width="300.5" height="14.5"/>
		
			<rect x="1067.9" y="586.3" transform="matrix(0.9694 -0.2456 0.2456 0.9694 -106.5457 332.8068)" class="st3" width="425.9" height="14.5"/>
		
			<rect x="990.4" y="311.5" transform="matrix(0.292 -0.9564 0.9564 0.292 545.6315 1374.4536)" class="st3" width="421.6" height="14.5"/>
		
			<rect x="884.9" y="231.8" transform="matrix(0.6328 -0.7743 0.7743 0.6328 218.3418 938.4307)" class="st3" width="427.2" height="14.5"/>
		
			<rect x="1082.8" y="147.7" transform="matrix(0.668 -0.7442 0.7442 0.668 98.6977 928.6362)" class="st3" width="14.5" height="412"/>
		
			<rect x="375.4" y="652.1" transform="matrix(0.7542 -0.6567 0.6567 0.7542 -465.7447 460.8736)" class="st3" width="14.5" height="400.8"/>
		<rect x="-19.3" y="428.5" class="st3" width="205.2" height="14.5"/>
		
			<rect x="-67.2" y="688.1" transform="matrix(0.8927 -0.4507 0.4507 0.8927 -306.5422 103.4752)" class="st3" width="262.4" height="14.5"/>
		
			<rect x="1325.5" y="-20.9" transform="matrix(0.7793 -0.6267 0.6267 0.7793 168.4269 879.4904)" class="st3" width="14.5" height="443"/>
		
			<rect x="1243.3" y="354.9" transform="matrix(0.1845 -0.9828 0.9828 0.1845 748.8203 1626.6859)" class="st3" width="222.7" height="14.5"/>
		<rect x="26.6" y="61.9" class="st3" width="14.5" height="785.8"/>
		
			<rect x="102.7" y="816.9" transform="matrix(0.6624 -0.7492 0.7492 0.6624 -644.8597 389.6906)" class="st3" width="14.5" height="186.7"/>
		
			<rect x="932" y="901.7" transform="matrix(0.8096 -0.587 0.587 0.8096 -331.9352 794.4438)" class="st3" width="253.5" height="14.5"/>
		<polygon class="st3" points="1262,1000.7 1052.8,915.9 951.8,786.4 963.2,777.4 1061.9,903.9 1267.4,987.2 		"/>
		
			<rect x="1039.3" y="1013.7" transform="matrix(0.5027 -0.8644 0.8644 0.5027 -325.8268 1475.496)" class="st3" width="160.7" height="14.5"/>
		
			<rect x="132.9" y="740.3" transform="matrix(0.8004 -0.5994 0.5994 0.8004 -373.7796 372.4835)" class="st3" width="479.2" height="14.5"/>
		
			<rect x="121" y="848" transform="matrix(0.7932 -0.609 0.609 0.7932 -436.0481 426.6382)" class="st3" width="578.2" height="14.5"/>
		
			<rect x="504.8" y="678.1" transform="matrix(0.7388 -0.674 0.674 0.7388 -419.9756 559.7129)" class="st3" width="14.5" height="287.1"/>
		
			<rect x="345.3" y="925" transform="matrix(0.7313 -0.6821 0.6821 0.7313 -601.3825 514.7087)" class="st3" width="14.5" height="191.1"/>
		
			<rect x="634.7" y="1014.1" transform="matrix(0.6838 -0.7297 0.7297 0.6838 -498.3427 892.7309)" class="st3" width="292.2" height="14.5"/>
		
			<rect x="649.1" y="932.1" transform="matrix(0.7469 -0.6649 0.6649 0.7469 -545.7078 707.3701)" class="st3" width="14.5" height="277"/>
		
			<rect x="645.8" y="460.6" transform="matrix(0.7872 -0.6167 0.6167 0.7872 -118.4541 592.4538)" class="st3" width="306.7" height="14.5"/>
		
			<rect x="1119.4" y="715.9" transform="matrix(0.9989 -4.639411e-02 4.639411e-02 0.9989 -32.16 60.7448)" class="st3" width="346.3" height="14.5"/>
		<polygon class="st3" points="1528,916.9 1209.5,903.3 1210.2,888.8 1528.6,902.5 		"/>
		<rect x="1267.5" y="996.4" class="st3" width="270.4" height="14.5"/>
		
			<rect x="1326.1" y="717.5" transform="matrix(0.9609 -0.277 0.277 0.9609 -186.9678 403.0689)" class="st3" width="14.5" height="291.9"/>
		
			<rect x="1238.6" y="491.3" transform="matrix(0.9998 -2.098044e-02 2.098044e-02 0.9998 -12.4878 26.2724)" class="st3" width="14.5" height="234"/>
		
			<rect x="1282.3" y="82.8" transform="matrix(0.8057 -0.5923 0.5923 0.8057 219.6969 849.8182)" class="st3" width="245.7" height="14.5"/>
	</g>
</g>
</svg>
