<?xml version="1.0" encoding="utf-8"?>
<!-- Generator: Adobe Illustrator 22.0.1, SVG Export Plug-In . SVG Version: 6.00 Build 0)  -->
<svg version="1.1" id="Capa_1" xmlns="http://www.w3.org/2000/svg" xmlns:xlink="http://www.w3.org/1999/xlink" x="0px" y="0px"
	 viewBox="0 0 746.5 281.4" style="enable-background:new 0 0 746.5 281.4;" xml:space="preserve">
<style type="text/css">
	.st0{fill:#002E6E;}
	.st1{fill:#C64E3B;}
	.st2{fill:#C1BFD5;}
	.st3{fill:#EDD0C2;}
	.st4{fill:#FFFFFF;}
	.st5{fill:#D7BCBA;}
</style>
<g>
	<g>
		<path class="st0" d="M31.5,65.5C14.1,65.5,0,51.4,0,34S14.1,2.5,31.5,2.5S63,16.7,63,34S48.9,65.5,31.5,65.5z M31.5,9.5
			C18,9.5,7,20.5,7,34s11,24.5,24.5,24.5S56,47.5,56,34S45,9.5,31.5,9.5z"/>
	</g>
	<g>
		<path class="st1" d="M38.7,43.3H25.3V41l6.6-7.2c1-1.1,1.6-2,2-2.7c0.4-0.7,0.6-1.4,0.6-2.2c0-0.9-0.3-1.7-0.8-2.3
			s-1.3-0.9-2.2-0.9c-1.1,0-1.9,0.3-2.5,1c-0.6,0.7-0.9,1.6-0.9,2.7h-3.3c0-1.2,0.3-2.3,0.8-3.3c0.6-1,1.3-1.7,2.4-2.3
			s2.2-0.8,3.5-0.8c1.9,0,3.5,0.5,4.6,1.5c1.1,1,1.7,2.3,1.7,4c0,1-0.3,2-0.8,3.1s-1.5,2.3-2.8,3.7l-4.9,5.2h9.2V43.3z"/>
	</g>
	<g>
		<path class="st0" d="M406,35h-3v-2h3V35z M400,35h-3v-2h3V35z M394,35h-3v-2h3V35z M388,35h-3v-2h3V35z M382,35h-3v-2h3V35z
			 M376,35h-3v-2h3V35z M370,35h-3v-2h3V35z M364,35h-3v-2h3V35z M358,35h-3v-2h3V35z M352,35h-3v-2h3V35z M346,35h-3v-2h3V35z
			 M340,35h-3v-2h3V35z M334,35h-3v-2h3V35z M328,35h-3v-2h3V35z M322,35h-3v-2h3V35z M316,35h-3v-2h3V35z M310,35h-3v-2h3V35z
			 M304,35h-3v-2h3V35z M298,35h-3v-2h3V35z M292,35h-3v-2h3V35z M286,35h-3v-2h3V35z M280,35h-3v-2h3V35z M274,35h-3v-2h3V35z
			 M268,35h-3v-2h3V35z M262,35h-3v-2h3V35z M256,35h-3v-2h3V35z M250,35h-3v-2h3V35z M244,35h-3v-2h3V35z M238,35h-3v-2h3V35z
			 M232,35h-3v-2h3V35z M226,35h-3v-2h3V35z M220,35h-3v-2h3V35z M214,35h-3v-2h3V35z M208,35h-3v-2h3V35z M202,35h-3v-2h3V35z
			 M196,35h-3v-2h3V35z M190,35h-3v-2h3V35z M184,35h-3v-2h3V35z M178,35h-3v-2h3V35z M172,35h-3v-2h3V35z M166,35h-3v-2h3V35z
			 M160,35h-3v-2h3V35z M154,35h-3v-2h3V35z M148,35h-3v-2h3V35z M142,35h-3v-2h3V35z M136,35h-3v-2h3V35z M130,35h-3v-2h3V35z
			 M124,35h-3v-2h3V35z M118,35h-3v-2h3V35z M112,35h-3v-2h3V35z M106,35h-3v-2h3V35z M100,35h-3v-2h3V35z M94,35h-3v-2h3V35z
			 M88,35h-3v-2h3V35z M82,35h-3v-2h3V35z M76,35h-3v-2h3V35z M70,35h-3v-2h3V35z M64,35h-3v-2h3V35z"/>
	</g>
	<g>
		<g>
			<g>
				<g>
					<path class="st2" d="M605.8,44h-5.3h-5.9h-5.2c0,0-9.1,22.7-35.9,21.7v76.1c0,0,8.6,20.1,41.1,27.8h5.9
						c32.5-7.7,41.1-27.8,41.1-27.8V65.7C614.9,66.8,605.8,44,605.8,44z"/>
				</g>
				<g>
					<path class="st0" d="M600.9,172.5l-6.9-0.1c-33.6-7.9-42.8-28.6-43.1-29.4l-0.2-0.6V62.7l3,0.1c24.4,1,33-19.6,33-19.8l0.7-1.8
						h20.3l0.7,1.8c0.3,0.8,8.6,20.9,33,19.8l3-0.1v79.8l-0.2,0.6c-0.4,0.9-9.6,21.5-43.1,29.4L600.9,172.5z M595.1,166.7h5.2
						c27.7-6.6,37-22.5,38.5-25.5V68.7C617,68.1,606.9,52.4,604,47h-12.7c-2.9,5.4-13,21.2-34.8,21.7v72.5
						C558.1,144.1,567.6,160.1,595.1,166.7z"/>
				</g>
			</g>
			<g>
				<g>
					<path class="st3" d="M597.7,43.9h-2.9h-5.2c0,0-9.1,22.7-35.9,21.7v76.1c0,0,8.6,20.1,41.1,27.7h2.9V43.9z"/>
				</g>
				<g>
					<path class="st0" d="M600.6,172.4l-6.5-0.1c-33.6-7.9-42.8-28.6-43.1-29.4l-0.2-0.6V62.6l3,0.1c24.5,1,33-19.6,33-19.8l0.7-1.8
						h13.1V172.4z M556.5,141.1c1.5,2.9,11,18.8,38.2,25.4l0-119.6h-3.4c-2.9,5.4-13,21.2-34.8,21.7V141.1z"/>
				</g>
			</g>
			<g>
				<rect x="594.7" y="43.9" class="st0" width="5.8" height="48.6"/>
			</g>
			<g>
				<g>
					<g>
						<path class="st4" d="M591.3,35.6c0,18-14.6,32.7-32.7,32.7c-18,0-32.7-14.6-32.7-32.7c0-18,14.6-32.7,32.7-32.7
							C576.7,2.9,591.3,17.6,591.3,35.6z"/>
					</g>
					<g>
						<path class="st0" d="M558.7,71.2c-19.6,0-35.6-16-35.6-35.6C523.1,16,539,0,558.7,0c19.6,0,35.6,16,35.6,35.6
							C594.2,55.2,578.3,71.2,558.7,71.2z M558.7,5.8c-16.4,0-29.7,13.3-29.7,29.7c0,16.4,13.3,29.7,29.7,29.7
							c16.4,0,29.7-13.3,29.7-29.7C588.4,19.2,575.1,5.8,558.7,5.8z"/>
					</g>
				</g>
				<g>
					<polygon class="st0" points="556.9,52.2 538.9,34.2 543.1,30.1 556.9,44 577.4,23.5 581.5,27.6 					"/>
				</g>
			</g>
		</g>
		<g>
			<rect x="617.5" y="84" class="st0" width="5.8" height="58.1"/>
		</g>
	</g>
	<g>
		<rect x="595" y="183.9" class="st0" width="5.8" height="44.6"/>
	</g>
	<g>
		<g>
			<polygon class="st4" points="637,110.5 637,249.7 743.6,249.7 743.6,135.1 719,110.5 			"/>
		</g>
		<g>
			<path class="st0" d="M746.5,252.6H634v-145h86.2l26.3,26.3V252.6z M639.9,246.8h100.8V136.3l-22.9-22.9h-77.9V246.8z"/>
		</g>
	</g>
	<g>
		<g>
			<polygon class="st5" points="619,185.1 571.7,185.1 571.7,205.2 632.6,205.2 			"/>
		</g>
		<g>
			<path class="st0" d="M638.1,208.1h-69.3v-25.9h51.7L638.1,208.1z M574.6,202.3h52.4l-9.6-14.2h-42.8V202.3z"/>
		</g>
	</g>
	<g>
		<g>
			<polygon class="st3" points="700.3,278.4 700.3,205.2 571.8,205.2 571.7,278.4 			"/>
		</g>
		<g>
			<path class="st0" d="M703.2,281.4H568.8l0.1-79.1h134.4V281.4z M574.6,275.5h122.8v-67.4H574.7L574.6,275.5z"/>
		</g>
	</g>
	<g>
		<g>
			<polygon class="st4" points="743.2,135 718.8,110.7 717.3,110.7 717.3,136.2 743.2,136.2 			"/>
		</g>
		<g>
			<path class="st0" d="M746.1,139.2h-31.7v-31.4h5.6l26,26V139.2z M720.3,133.3h17.1l-17.1-17.1V133.3z"/>
		</g>
	</g>
	<g>
		<g>
			<rect x="636.4" y="229" class="st0" width="45.8" height="5.8"/>
		</g>
	</g>
	<g>
		<g>
			<rect x="636.4" y="244" class="st0" width="45.8" height="5.8"/>
		</g>
	</g>
	<g>
		<polygon class="st0" points="682.3,266.4 584.2,266.4 584.2,229.4 590,229.4 590,260.6 682.3,260.6 		"/>
	</g>
	<g>
		<g>
			<rect x="603" y="231.9" class="st4" width="20.3" height="18.6"/>
		</g>
		<g>
			<path class="st0" d="M626.2,253.4h-26.1V229h26.1V253.4z M606,247.6h14.4v-12.7H606V247.6z"/>
		</g>
	</g>
	<g>
		<g>
			<rect x="637" y="110.5" class="st5" width="22.8" height="94.7"/>
		</g>
		<g>
			<path class="st0" d="M662.6,208.1H634V107.6h28.6V208.1z M639.9,202.3h16.9v-88.9h-16.9V202.3z"/>
		</g>
	</g>
	<g>
		<polygon class="st0" points="639.9,206.3 634,206.3 634,107.6 659.7,107.6 659.7,113.4 639.9,113.4 		"/>
	</g>
	<g>
		<g>
			<g>
				<rect x="673.7" y="127.1" class="st1" width="32.5" height="5.8"/>
			</g>
		</g>
		<g>
			<g>
				<rect x="673.7" y="142.3" class="st1" width="32.5" height="5.8"/>
			</g>
		</g>
		<g>
			<g>
				<rect x="673.2" y="154.8" class="st1" width="32.5" height="5.8"/>
			</g>
		</g>
	</g>
	<g>
		<g>
			<polygon class="st0" points="675.9,94.7 670.1,94.7 670.1,47.6 642.7,47.6 642.7,41.8 675.9,41.8 			"/>
		</g>
	</g>
</g>
</svg>
