<?xml version="1.0" encoding="utf-8"?>
<!-- Generator: Adobe Illustrator 22.0.1, SVG Export Plug-In . SVG Version: 6.00 Build 0)  -->
<svg version="1.1" id="Capa_1" xmlns="http://www.w3.org/2000/svg" xmlns:xlink="http://www.w3.org/1999/xlink" x="0px" y="0px"
	 viewBox="0 0 667.5 257.2" style="enable-background:new 0 0 667.5 257.2;" xml:space="preserve">
<style type="text/css">
	.st0{fill:#002E6E;}
	.st1{fill:#C64E3B;}
	.st2{fill:#FFFFFF;}
	.st3{fill:#C1BFD5;}
	.st4{fill:#EDD0C2;}
</style>
<g>
	<g>
		<path class="st0" d="M636,63c-17.4,0-31.5-14.1-31.5-31.5S618.6,0,636,0s31.5,14.1,31.5,31.5S653.4,63,636,63z M636,7
			c-13.5,0-24.5,11-24.5,24.5S622.5,56,636,56s24.5-11,24.5-24.5S649.5,7,636,7z"/>
	</g>
	<g>
		<path class="st1" d="M638.8,40.8h-3.3v-16l-4.9,1.7v-2.8l7.8-2.9h0.4V40.8z"/>
	</g>
	<g>
		<g>
			<path class="st2" d="M190,163.7V68.8c0-16-5.7-19.3-21.8-19.3h-122c-16,0-19.3,3.3-19.3,19.3v94.9H190z"/>
		</g>
		<g>
			<path class="st0" d="M192.8,166.4H24.2V68.8c0-17.6,4.5-22.1,22.1-22.1h122c16.3,0,24.5,3.4,24.5,22.1V166.4z M29.7,160.9h157.6
				V68.8c0-13.6-3.4-16.6-19-16.6h-122c-14.6,0-16.6,2-16.6,16.6V160.9z"/>
		</g>
	</g>
	<g>
		<g>
			<polygon class="st3" points="201.4,173.3 16.9,173.3 26.5,149.2 191.7,149.2 			"/>
		</g>
		<g>
			<path class="st0" d="M205.5,176.1H12.8l11.9-29.6h168.9L205.5,176.1z M20.9,170.5h176.4l-7.5-18.6H28.4L20.9,170.5z"/>
		</g>
	</g>
	<g>
		<path class="st0" d="M179.2,138.2H37.8V61.1h141.4V138.2z M43.3,132.7h130.4V66.6H43.3V132.7z"/>
	</g>
	<g>
		<g>
			<g>
				<path class="st4" d="M122.6,64.2c0,33.1-26.8,59.9-59.9,59.9c-33.1,0-59.9-26.8-59.9-59.9S29.6,4.3,62.7,4.3
					C95.7,4.3,122.6,31.1,122.6,64.2z"/>
			</g>
			<g>
				<path class="st0" d="M62.7,126.8C28.1,126.8,0,98.7,0,64.2C0,29.6,28.1,1.5,62.7,1.5c34.5,0,62.7,28.1,62.7,62.7
					C125.3,98.7,97.2,126.8,62.7,126.8z M62.7,7.1C31.2,7.1,5.5,32.7,5.5,64.2s25.6,57.1,57.1,57.1c31.5,0,57.1-25.6,57.1-57.1
					S94.2,7.1,62.7,7.1z"/>
			</g>
		</g>
		<g>
			<path class="st0" d="M110.4,61.8h-5.5c0-23-18.7-41.7-41.7-41.7c-23,0-41.7,18.7-41.7,41.7h-5.5c0-26.1,21.2-47.3,47.3-47.3
				S110.4,35.7,110.4,61.8z"/>
		</g>
		<g>
			<g>
				<path class="st2" d="M78.1,43.6c0,10.1-6.9,18.2-15.4,18.2s-15.4-8.2-15.4-18.2c0-10.1,6.9-15,15.4-15S78.1,33.6,78.1,43.6z"/>
			</g>
			<g>
				<path class="st0" d="M62.7,64.6c-10,0-18.2-9.4-18.2-21c0-10.8,7.1-17.7,18.2-17.7c11.1,0,18.2,7,18.2,17.7
					C80.9,55.2,72.7,64.6,62.7,64.6z M62.7,31.4C54.7,31.4,50,36,50,43.6c0,8.5,5.7,15.5,12.7,15.5c7,0,12.7-6.9,12.7-15.5
					C75.3,36,70.6,31.4,62.7,31.4z"/>
			</g>
		</g>
		<g>
			<g>
				<path class="st2" d="M89.4,70.1H35.9c-4.4,0-8,3.4-8,7.7v34.1c9.4,7.9,21.5,12,34.7,12c13.2,0,25.3-3.8,34.7-11.8V77.8
					C97.4,73.5,93.8,70.1,89.4,70.1z"/>
			</g>
			<g>
				<path class="st0" d="M62.7,126.7c-14.1,0-26.7-4.4-36.5-12.7l-1-0.8V77.8c0-5.8,4.8-10.5,10.7-10.5h53.5
					c5.9,0,10.7,4.7,10.7,10.5v35.7l-1,0.8C89.6,122.4,77,126.7,62.7,126.7z M30.7,110.6c8.6,6.9,19.6,10.6,31.9,10.6
					c12.5,0,23.5-3.6,31.9-10.3V77.8c0-2.7-2.3-4.9-5.2-4.9H35.9c-2.9,0-5.2,2.2-5.2,4.9V110.6z"/>
			</g>
		</g>
		<g>
			<g>
				<rect x="41.3" y="86.4" class="st0" width="5.5" height="34.2"/>
			</g>
		</g>
		<g>
			<g>
				<rect x="81.9" y="87.6" class="st0" width="5.5" height="32.6"/>
			</g>
		</g>
		<g>
			<g>
				<polygon class="st2" points="77.2,76 63.4,108.4 50.1,76 50.1,70.2 77.2,70.2 				"/>
			</g>
			<g>
				<path class="st0" d="M63.3,115.6l-16-39v-9.1H80v9.1L63.3,115.6z M52.8,75.4l10.6,25.8l11-25.8V73H52.8V75.4z"/>
			</g>
		</g>
		<g>
			<g>
				<polygon class="st2" points="56.3,91.2 59.9,70.2 67.7,70.2 70.7,91.1 63.4,108.4 				"/>
			</g>
			<g>
				<path class="st0" d="M63.3,115.6l-9.8-24l4.1-24.1H70l3.6,24L63.3,115.6z M59.2,90.9l4.2,10.3l4.5-10.5L65.3,73h-3L59.2,90.9z"
					/>
			</g>
		</g>
	</g>
	<g>
		<g>
			<polygon class="st2" points="138.8,173.3 78.7,173.3 80.7,162.3 136.8,162.3 			"/>
		</g>
		<g>
			<path class="st0" d="M142.1,176.1H75.4l3-16.6h60.7L142.1,176.1z M82,170.5h53.5l-1-5.5H83L82,170.5z"/>
		</g>
	</g>
	<g>
		<g>
			<g>
				<rect x="102.6" y="115.3" class="st0" width="58.9" height="5.5"/>
			</g>
		</g>
		<g>
			<g>
				<rect x="135.1" y="103.6" class="st0" width="26.4" height="5.5"/>
			</g>
		</g>
		<g>
			<g>
				<rect x="135.1" y="91.9" class="st0" width="26.4" height="5.5"/>
			</g>
		</g>
		<g>
			<g>
				<rect x="135.1" y="80.2" class="st0" width="26.4" height="5.5"/>
			</g>
		</g>
	</g>
	<g>
		<path class="st1" d="M235.7,133.9c-11.8,0-21.4-9.6-21.4-21.4s9.6-21.4,21.4-21.4c11.8,0,21.4,9.6,21.4,21.4
			S247.5,133.9,235.7,133.9z M235.7,96.9c-8.6,0-15.6,7-15.6,15.6c0,8.6,7,15.6,15.6,15.6c8.6,0,15.6-7,15.6-15.6
			C251.3,103.9,244.3,96.9,235.7,96.9z"/>
	</g>
	<g>
		<path class="st1" d="M267.2,111.2h-5.8c0-13.8-11.6-25-25.8-25c-14.2,0-25.7,11.2-25.7,25h-5.8c0-16.9,14.1-30.7,31.5-30.7
			C253.1,80.5,267.2,94.3,267.2,111.2z"/>
	</g>
	<g>
		<g>
			<g>
				<path class="st2" d="M294.6,191.3v-32.8c0-5-3.7-9-8.3-9c-4.6,0-8.3,4-8.3,9v-4c0-5-3.7-9-8.3-9c-4.6,0-8.3,4-8.3,9v-3.5
					c0-5-3.7-9-8.3-9c-4.6,0-8.3,4-8.3,9v-32.5c0-5-3.7-9-8.3-9c-4.6,0-8.3,4-8.3,9v47l-5.1-11.9c-2.3-4.3-7.4-5.3-11.7-3.1
					c-4.4,2.2-5.8,8.2-3.5,12.5l27,62.4l50.4,6.7L294.6,191.3z"/>
			</g>
			<g>
				<path class="st0" d="M287.3,235.3l-54.6-7.2l-27.6-63.9c-1.5-2.8-1.8-6.3-0.7-9.6c1-3,2.9-5.3,5.5-6.7c1.8-0.9,3.9-1.4,5.8-1.4
					c4,0,7.4,1.9,9.4,5.2v-33.1c0-6.6,5-11.9,11.2-11.9c6.2,0,11.2,5.3,11.2,11.9v22.1c1.6-1,3.5-1.5,5.4-1.5c4.2,0,7.8,2.4,9.7,6
					c1.9-1.6,4.3-2.5,6.9-2.5c4.3,0,8.1,2.6,9.9,6.4c1.9-1.5,4.2-2.4,6.7-2.4c6.2,0,11.2,5.3,11.2,11.9l-0.1,33.4L287.3,235.3z
					 M236.7,222.8l46.2,6.1l8.8-37.9v-32.4c0-3.4-2.4-6.1-5.4-6.1c-3,0-5.4,2.8-5.4,6.1h-5.8v-4c0-3.4-2.4-6.1-5.4-6.1
					c-3,0-5.4,2.8-5.4,6.1h-5.8v-3.5c0-3.4-2.4-6.1-5.4-6.1c-3,0-5.4,2.8-5.4,6.1h-5.8v-32.5c0-3.4-2.4-6.2-5.5-6.2
					c-3,0-5.4,2.8-5.4,6.2v61l-10.6-24.8c-1.1-2.1-3.3-2.5-4.5-2.5c-1.1,0-2.2,0.3-3.3,0.8c-1.2,0.6-2.2,1.8-2.6,3.3
					c-0.6,1.8-0.4,3.8,0.4,5.4L236.7,222.8z"/>
			</g>
		</g>
		<g>
			<g>
				<rect x="241.8" y="149" class="st0" width="5.8" height="19.4"/>
			</g>
		</g>
		<g>
			<g>
				<rect x="258.6" y="152.5" class="st0" width="5.8" height="13.2"/>
			</g>
		</g>
		<g>
			<g>
				<rect x="275.1" y="156.1" class="st0" width="5.8" height="7.5"/>
			</g>
		</g>
		<g>
			<g>
				<polygon class="st4" points="294.6,254.3 227.7,254.3 227.7,225.4 285.7,225.4 294.6,237.3 				"/>
			</g>
			<g>
				<path class="st0" d="M297.5,257.2h-72.7v-34.6h62.4l10.3,13.8V257.2z M230.5,251.4h61.2v-13.2l-7.5-9.9h-53.8V251.4z"/>
			</g>
		</g>
		<g>
			<g>
				<rect x="260.6" y="239.1" class="st0" width="5.8" height="15.2"/>
			</g>
		</g>
		<g>
			<g>
				<rect x="241.8" y="239.1" class="st0" width="5.8" height="15.2"/>
			</g>
		</g>
	</g>
	<g>
		<g>
			<polygon class="st0" points="297.5,131.2 291.8,131.2 291.8,84.1 264.3,84.1 264.3,78.4 297.5,78.4 			"/>
		</g>
	</g>
	<g>
		<path class="st0" d="M605,32.5h-3v-2h3V32.5z M599,32.5h-3v-2h3V32.5z M593,32.5h-3v-2h3V32.5z M587,32.5h-3v-2h3V32.5z M581,32.5
			h-3v-2h3V32.5z M575,32.5h-3v-2h3V32.5z M569,32.5h-3v-2h3V32.5z M563,32.5h-3v-2h3V32.5z M557,32.5h-3v-2h3V32.5z M551,32.5h-3
			v-2h3V32.5z M545,32.5h-3v-2h3V32.5z M539,32.5h-3v-2h3V32.5z M533,32.5h-3v-2h3V32.5z M527,32.5h-3v-2h3V32.5z M521,32.5h-3v-2h3
			V32.5z M515,32.5h-3v-2h3V32.5z M509,32.5h-3v-2h3V32.5z M503,32.5h-3v-2h3V32.5z M497,32.5h-3v-2h3V32.5z M491,32.5h-3v-2h3V32.5
			z M485,32.5h-3v-2h3V32.5z M479,32.5h-3v-2h3V32.5z M473,32.5h-3v-2h3V32.5z M467,32.5h-3v-2h3V32.5z M461,32.5h-3v-2h3V32.5z
			 M455,32.5h-3v-2h3V32.5z M449,32.5h-3v-2h3V32.5z M443,32.5h-3v-2h3V32.5z M437,32.5h-3v-2h3V32.5z M431,32.5h-3v-2h3V32.5z
			 M425,32.5h-3v-2h3V32.5z M419,32.5h-3v-2h3V32.5z M413,32.5h-3v-2h3V32.5z M407,32.5h-3v-2h3V32.5z M401,32.5h-3v-2h3V32.5z
			 M395,32.5h-3v-2h3V32.5z M389,32.5h-3v-2h3V32.5z M383,32.5h-3v-2h3V32.5z M377,32.5h-3v-2h3V32.5z M371,32.5h-3v-2h3V32.5z
			 M365,32.5h-3v-2h3V32.5z M359,32.5h-3v-2h3V32.5z M353,32.5h-3v-2h3V32.5z M347,32.5h-3v-2h3V32.5z M341,32.5h-3v-2h3V32.5z
			 M335,32.5h-3v-2h3V32.5z M329,32.5h-3v-2h3V32.5z M323,32.5h-3v-2h3V32.5z M317,32.5h-3v-2h3V32.5z M311,32.5h-3v-2h3V32.5z
			 M305,32.5h-3v-2h3V32.5z M299,32.5h-3v-2h3V32.5z M293,32.5h-3v-2h3V32.5z M287,32.5h-3v-2h3V32.5z M281,32.5h-3v-2h3V32.5z
			 M275,32.5h-3v-2h3V32.5z M269,32.5h-3v-2h3V32.5z M263,32.5h-3v-2h3V32.5z"/>
	</g>
</g>
</svg>
