<?xml version="1.0" encoding="utf-8"?>
<!-- Generator: Adobe Illustrator 22.0.1, SVG Export Plug-In . SVG Version: 6.00 Build 0)  -->
<svg version="1.1" id="Capa_1" xmlns="http://www.w3.org/2000/svg" xmlns:xlink="http://www.w3.org/1999/xlink" x="0px" y="0px"
	 viewBox="0 0 298.4 298.4" style="enable-background:new 0 0 298.4 298.4;" xml:space="preserve">
<style type="text/css">
	.st0{opacity:0.23;}
	.st1{fill:#FFFFFF;}
</style>
<g class="st0">
	<path class="st1" d="M260.6,272.8c-0.6,0-1.3-0.3-1.7-0.8c-0.8-1-0.7-2.4,0.3-3.2l6.2-5.2l-6.2-5.2c-1-0.8-1.1-2.2-0.3-3.2
		c0.8-1,2.2-1.1,3.2-0.3l8.3,6.9c0.5,0.4,0.8,1.1,0.8,1.7s-0.3,1.3-0.8,1.7l-8.3,6.9C261.6,272.6,261.1,272.8,260.6,272.8
		L260.6,272.8z"/>
	<path class="st1" d="M244.9,272.8c-0.6,0-1.3-0.3-1.7-0.8c-0.8-1-0.7-2.4,0.3-3.2l6.2-5.2l-6.2-5.2c-1-0.8-1.1-2.2-0.3-3.2
		c0.8-1,2.2-1.1,3.2-0.3l8.3,6.9c0.5,0.4,0.8,1.1,0.8,1.7s-0.3,1.3-0.8,1.7l-8.3,6.9C245.9,272.6,245.4,272.8,244.9,272.8
		L244.9,272.8z"/>
	<path class="st1" d="M229.3,272.8c-0.6,0-1.3-0.3-1.7-0.8c-0.8-1-0.7-2.4,0.3-3.2l6.2-5.2l-6.2-5.2c-1-0.8-1.1-2.2-0.3-3.2
		c0.8-1,2.2-1.1,3.1-0.3l8.3,6.9c0.5,0.4,0.8,1.1,0.8,1.7s-0.3,1.3-0.8,1.7l-8.3,6.9C230.3,272.6,229.8,272.8,229.3,272.8
		L229.3,272.8z"/>
	<path class="st1" d="M90.1,204.4c-0.6,0-1.3-0.3-1.7-0.8c-0.8-0.9-0.7-2.4,0.3-3.2l6.2-5.2l-6.2-5.2c-1-0.8-1.1-2.2-0.3-3.2
		c0.8-1,2.2-1.1,3.1-0.3l8.3,6.9c0.5,0.4,0.8,1.1,0.8,1.7s-0.3,1.3-0.8,1.7l-8.3,6.9C91.1,204.2,90.6,204.4,90.1,204.4L90.1,204.4z"
		/>
	<path class="st1" d="M74.5,204.4c-0.6,0-1.3-0.3-1.7-0.8c-0.8-0.9-0.7-2.4,0.3-3.2l6.2-5.2l-6.2-5.2c-1-0.8-1.1-2.2-0.3-3.2
		c0.8-1,2.2-1.1,3.2-0.3l8.3,6.9c0.5,0.4,0.8,1.1,0.8,1.7s-0.3,1.3-0.8,1.7l-8.3,6.9C75.5,204.2,75,204.4,74.5,204.4L74.5,204.4z"/>
	<path class="st1" d="M58.8,204.4c-0.6,0-1.3-0.3-1.7-0.8c-0.8-0.9-0.7-2.4,0.3-3.2l6.2-5.2l-6.2-5.2c-1-0.8-1.1-2.2-0.3-3.2
		c0.8-1,2.2-1.1,3.1-0.3l8.3,6.9c0.5,0.4,0.8,1.1,0.8,1.7s-0.3,1.3-0.8,1.7l-8.3,6.9C59.8,204.2,59.3,204.4,58.8,204.4L58.8,204.4z"
		/>
	<path class="st1" d="M182.9,164.7c-0.6,0-1.3-0.3-1.7-0.8l-5.2-6.2l-5.2,6.2c-0.8,1-2.2,1.1-3.2,0.3c-1-0.8-1.1-2.2-0.3-3.2
		l6.9-8.3c0.8-1,2.6-1,3.4,0l6.9,8.3c0.8,1,0.7,2.4-0.3,3.2C183.9,164.5,183.4,164.7,182.9,164.7L182.9,164.7z"/>
	<path class="st1" d="M169.1,180.3c-0.5,0-1-0.2-1.4-0.5c-1-0.8-1.1-2.2-0.3-3.2l6.9-8.3c0.8-1,2.6-1,3.4,0l6.9,8.3
		c0.8,1,0.7,2.4-0.3,3.1c-0.9,0.8-2.4,0.7-3.2-0.3l-5.2-6.2l-5.2,6.2C170.4,180,169.8,180.3,169.1,180.3L169.1,180.3z"/>
	<path class="st1" d="M182.9,196c-0.6,0-1.3-0.3-1.7-0.8l-5.2-6.2l-5.2,6.2c-0.8,1-2.2,1.1-3.2,0.3c-1-0.8-1.1-2.2-0.3-3.2l6.9-8.3
		c0.8-1,2.6-1,3.4,0l6.9,8.3c0.8,1,0.7,2.4-0.3,3.2C183.9,195.8,183.4,196,182.9,196L182.9,196z"/>
	<path class="st1" d="M158.2,197v-33.1c0-7.6-6.1-13.7-13.7-13.7H13.7c-7.5,0-13.7,6.1-13.7,13.7v87.8c0,7.5,6.1,13.7,13.7,13.7
		h40.4c-1.2,10.3-9.9,18.3-20.5,18.3c-6.9,0-12.5,5.6-12.5,12.5c0,1.2,1,2.2,2.2,2.2h111.4c0,0,0.1,0,0.1,0c0.2,0,0.3,0,0.5,0
		c29.4,0,53.3-23.9,53.3-53.3C188.8,223.9,176.2,205.5,158.2,197z M4.5,163.9c0-5.1,4.1-9.2,9.2-9.2h130.8c5.1,0,9.2,4.1,9.2,9.2
		v31.2c-5.7-2.1-11.8-3.3-18.3-3.3c-26.2,0-48,19-52.4,43.9H4.5V163.9z M13.7,260.9c-5.1,0-9.2-4.1-9.2-9.2v-11.5h77.9
		c-0.1,1.6-0.2,3.2-0.2,4.9c0,5.5,0.8,10.8,2.4,15.8H13.7z M58.6,265.4h27.6c2.9,7,7.2,13.2,12.6,18.3h-51
		C53.7,279.6,57.9,273,58.6,265.4z M25.9,293.9c1-3.3,4.1-5.8,7.7-5.8h70.5c3.1,2.3,6.4,4.2,10,5.8H25.9z M135.5,293.9
		c-26.9,0-48.8-21.9-48.8-48.8c0-26.9,21.9-48.8,48.8-48.8c26.9,0,48.8,21.9,48.8,48.8C184.3,272,162.4,293.9,135.5,293.9z"/>
	<path class="st1" d="M197.8,195c1.2,0,2.2-1,2.2-2.2v-11.7c0-1.2-1-2.2-2.2-2.2c-1.2,0-2.2,1-2.2,2.2v11.7
		C195.7,194,196.6,195,197.8,195L197.8,195z"/>
	<path class="st1" d="M197.8,171c1.2,0,2.2-1,2.2-2.2v-11.7c0-1.2-1-2.2-2.2-2.2c-1.2,0-2.2,1-2.2,2.2v11.7
		C195.7,170,196.6,171,197.8,171L197.8,171z"/>
	<path class="st1" d="M136.6,133c0,1.2,1,2.2,2.2,2.2h11.7c1.2,0,2.2-1,2.2-2.2c0-1.2-1-2.2-2.2-2.2h-11.7
		C137.6,130.8,136.6,131.8,136.6,133L136.6,133z"/>
	<path class="st1" d="M160,133c0,1.2,1,2.2,2.2,2.2h11.7c1.2,0,2.2-1,2.2-2.2c0-1.2-1-2.2-2.2-2.2h-11.7
		C161,130.8,160,131.8,160,133L160,133z"/>
	<path class="st1" d="M286.6,0h-66.5c-6.5,0-11.7,5.3-11.7,11.7v83.7c0,6.5,5.3,11.7,11.7,11.7h19c1.2,0,2.2-1,2.2-2.2v-8
		c0-1.2-1-2.2-2.2-2.2h-9.3l23.6-32.6L277,94.7h-9.3c-1.2,0-2.2,1-2.2,2.2v8c0,1.2,1,2.2,2.2,2.2h19c6.5,0,11.7-5.3,11.7-11.7V11.7
		C298.4,5.3,293.1,0,286.6,0z M255.2,56.9c-0.8-1.2-2.8-1.2-3.6,0l-10.7,14.9c-11-4.9-18.3-16-18.3-28.1c0-17,13.8-30.9,30.9-30.9
		c17,0,30.9,13.8,30.9,30.9c0,12.1-7.3,23.2-18.3,28.1L255.2,56.9z M293.9,95.4c0,4-3.3,7.3-7.3,7.3h-16.7v-3.5h11.5
		c0.8,0,1.6-0.5,2-1.2c0.4-0.8,0.3-1.6-0.2-2.3l-14.5-20.1c12.1-5.8,20.1-18.2,20.1-31.8c0-19.5-15.9-35.3-35.3-35.3
		c-19.5,0-35.3,15.9-35.3,35.3c0,13.6,8,26,20.1,31.8l-14.5,20.1c-0.5,0.7-0.6,1.6-0.2,2.3c0.4,0.7,1.2,1.2,2,1.2h11.5v3.5h-16.7
		c-4,0-7.3-3.3-7.3-7.3V11.7c0-4,3.3-7.3,7.3-7.3h66.5c4,0,7.3,3.3,7.3,7.3V95.4z"/>
	<path class="st1" d="M138.5,107.2H56.6C34.8,107.2,17,89.4,17,67.6c0-19.8,15-36.7,34.5-39.3C54,12.9,67.2,1.6,82.9,1.6
		c14.5,0,26.9,9.6,30.7,23.3c3.6-2.3,7.8-3.6,12-3.6c12.4,0,22.5,10.1,22.5,22.5c0,2.2-0.3,4.5-1,6.6c12,3.7,20.4,15,20.4,27.7
		C167.6,94.2,154.5,107.2,138.5,107.2L138.5,107.2z M82.9,6c-14,0-25.7,10.5-27.2,24.5c-0.1,1.1-1,1.9-2,2
		c-18,1.5-32.2,16.9-32.2,35c0,19.4,15.8,35.2,35.2,35.2h81.9c13.6,0,24.6-11,24.6-24.6c0-11.5-8.1-21.6-19.3-24
		c-0.7-0.1-1.2-0.6-1.5-1.2c-0.3-0.6-0.3-1.3-0.1-1.9c1-2.3,1.5-4.7,1.5-7.2c0-10-8.1-18.1-18.1-18.1c-4.4,0-8.6,1.6-12,4.6
		c-0.6,0.5-1.5,0.7-2.2,0.4c-0.8-0.3-1.3-0.9-1.5-1.7C107.8,15.7,96.4,6,82.9,6L82.9,6z"/>
	<path class="st1" d="M293.7,197.7c-1.2,0-2.2-1-2.2-2.2v-11.7c0-1.2,1-2.2,2.2-2.2c1.2,0,2.2,1,2.2,2.2v11.7
		C295.9,196.7,294.9,197.7,293.7,197.7L293.7,197.7z"/>
	<path class="st1" d="M293.7,172.6c-1.2,0-2.2-1-2.2-2.2v-11.7c0-1.2,1-2.2,2.2-2.2c1.2,0,2.2,1,2.2,2.2v11.7
		C295.9,171.7,294.9,172.6,293.7,172.6L293.7,172.6z"/>
	<path class="st1" d="M293.7,222.8c-1.2,0-2.2-1-2.2-2.2v-11.7c0-1.2,1-2.2,2.2-2.2c1.2,0,2.2,1,2.2,2.2v11.7
		C295.9,221.8,294.9,222.8,293.7,222.8L293.7,222.8z"/>
	<path class="st1" d="M293.7,232.5c1.2,0,2.2,1,2.2,2.2v10.2c0,1.2-1,2.2-2.2,2.2c-1.2,0-2.2-1-2.2-2.2v-10.2
		C291.5,233.5,292.5,232.5,293.7,232.5L293.7,232.5z"/>
	<path class="st1" d="M279.9,244.9c0-1.2,1-2.2,2.2-2.2h11.7c1.2,0,2.2,1,2.2,2.2s-1,2.2-2.2,2.2H282
		C280.8,247.1,279.9,246.1,279.9,244.9L279.9,244.9z"/>
	<path class="st1" d="M233,133.6c0,1.2,1,2.2,2.2,2.2h11.7c1.2,0,2.2-1,2.2-2.2c0-1.2-1-2.2-2.2-2.2h-11.7
		C234,131.4,233,132.4,233,133.6L233,133.6z"/>
	<path class="st1" d="M256.4,133.6c0,1.2,1,2.2,2.2,2.2h11.7c1.2,0,2.2-1,2.2-2.2c0-1.2-1-2.2-2.2-2.2h-11.7
		C257.4,131.4,256.4,132.4,256.4,133.6L256.4,133.6z"/>
	<path class="st1" d="M193.5,244.9c0,1.2,1,2.2,2.2,2.2h9.6c1.2,0,2.2-1,2.2-2.2c0-1.2-1-2.2-2.2-2.2h-9.6
		C194.4,242.7,193.5,243.7,193.5,244.9L193.5,244.9z"/>
	<path class="st1" d="M215.1,244.9c0,1.2,1,2.2,2.2,2.2h9.6c1.2,0,2.2-1,2.2-2.2c0-1.2-1-2.2-2.2-2.2h-9.6
		C216,242.7,215.1,243.7,215.1,244.9L215.1,244.9z"/>
	<path class="st1" d="M236.7,244.9c0,1.2,1,2.2,2.2,2.2h9.6c1.2,0,2.2-1,2.2-2.2c0-1.2-1-2.2-2.2-2.2h-9.6
		C237.6,242.7,236.7,243.7,236.7,244.9L236.7,244.9z"/>
	<path class="st1" d="M258.3,244.9c0,1.2,1,2.2,2.2,2.2h9.6c1.2,0,2.2-1,2.2-2.2c0-1.2-1-2.2-2.2-2.2h-9.6
		C259.2,242.7,258.3,243.7,258.3,244.9L258.3,244.9z"/>
	<path class="st1" d="M293.7,147.5c1.2,0,2.2-1,2.2-2.2v-11.7c0-1.2-1-2.2-2.2-2.2c-1.2,0-2.2,1-2.2,2.2v11.7
		C291.5,146.5,292.5,147.5,293.7,147.5L293.7,147.5z"/>
	<path class="st1" d="M279.7,133.6c0,1.2,1,2.2,2.2,2.2h11.7c1.2,0,2.2-1,2.2-2.2c0-1.2-1-2.2-2.2-2.2h-11.7
		C280.7,131.4,279.7,132.4,279.7,133.6L279.7,133.6z"/>
	<path class="st1" d="M213.1,119.6c-1.2,0-2.2,1-2.2,2.2v11.7c0,1.2,1,2.2,2.2,2.2c1.2,0,2.2-1,2.2-2.2v-11.7
		C215.3,120.6,214.3,119.6,213.1,119.6L213.1,119.6z"/>
	<path class="st1" d="M227.1,133.6c0-1.2-1-2.2-2.2-2.2h-11.7c-1.2,0-2.2,1-2.2,2.2c0,1.2,1,2.2,2.2,2.2h11.7
		C226.1,135.7,227.1,134.8,227.1,133.6L227.1,133.6z"/>
	<path class="st1" d="M113.3,133c0,1.2,1,2.2,2.2,2.2h11.7c1.2,0,2.2-1,2.2-2.2c0-1.2-1-2.2-2.2-2.2h-11.7
		C114.2,130.8,113.3,131.8,113.3,133L113.3,133z"/>
	<path class="st1" d="M91.3,133c0,1.2,1,2.2,2.2,2.2h11.7c1.2,0,2.2-1,2.2-2.2c0-1.2-1-2.2-2.2-2.2H93.5
		C92.3,130.8,91.3,131.8,91.3,133L91.3,133z"/>
	<path class="st1" d="M67.9,133c0,1.2,1,2.2,2.2,2.2h11.7c1.2,0,2.2-1,2.2-2.2c0-1.2-1-2.2-2.2-2.2H70.1
		C68.9,130.8,67.9,131.8,67.9,133L67.9,133z"/>
	<path class="st1" d="M48,119c-1.2,0-2.2,1-2.2,2.2v11.7c0,1.2,1,2.2,2.2,2.2c1.2,0,2.2-1,2.2-2.2v-11.7C50.2,120,49.2,119,48,119
		L48,119z"/>
	<path class="st1" d="M62,133c0-1.2-1-2.2-2.2-2.2H48.1c-1.2,0-2.2,1-2.2,2.2c0,1.2,1,2.2,2.2,2.2h11.7C61,135.2,62,134.2,62,133
		L62,133z"/>
	<path class="st1" d="M197.8,147c1.2,0,2.2-1,2.2-2.2v-11.7c0-1.2-1-2.2-2.2-2.2c-1.2,0-2.2,1-2.2,2.2v11.7
		C195.7,146,196.6,147,197.8,147L197.8,147z"/>
	<path class="st1" d="M183.9,133c0,1.2,1,2.2,2.2,2.2h11.7c1.2,0,2.2-1,2.2-2.2c0-1.2-1-2.2-2.2-2.2h-11.7
		C184.8,130.8,183.9,131.8,183.9,133L183.9,133z"/>
	<path class="st1" d="M197.8,204.4c1.2,0,2.2,1,2.2,2.2v10.2c0,1.2-1,2.2-2.2,2.2c-1.2,0-2.2-1-2.2-2.2v-10.2
		C195.7,205.4,196.6,204.4,197.8,204.4L197.8,204.4z"/>
	<path class="st1" d="M184,216.9c0-1.2,1-2.2,2.2-2.2h11.7c1.2,0,2.2,1,2.2,2.2c0,1.2-1,2.2-2.2,2.2h-11.7
		C185,219.1,184,218.1,184,216.9L184,216.9z"/>
	<path class="st1" d="M249.2,219.3H249c-11.5,0-23.1-16.2-23.1-47.2c0-0.9,0.4-1.9,1.1-2.5l8.3-8.4c0.7-0.7,1.6-1.1,2.6-1.1h22.6
		c0.9,0,1.9,0.4,2.6,1.1l8.3,8.5c0.7,0.7,1,1.6,1,2.5C272.3,203.1,260.7,219.3,249.2,219.3L249.2,219.3z M230.3,172.5
		c0.1,26.5,9.5,42.3,18.7,42.3h0.2c9.1,0,18.6-15.8,18.7-42.3l-7.8-8h-21.9L230.3,172.5L230.3,172.5z"/>
	<path class="st1" d="M135.3,281.9c-16.9,0-27.8-9.4-27.8-24c0-5.5,1.6-9.9,4.7-13.2l0-6.6c0-3.1,0-5.1,0-6.3
		c0-12.9,10.5-23.5,23.4-23.5c12.9,0,23.4,10.6,23.4,23.7v12.9c3,3.3,4.4,7.5,4.4,12.9C163.4,272.4,152.4,281.9,135.3,281.9
		L135.3,281.9z M135.6,212.8c-10.5,0-19,8.6-19,19.1c0,1.2,0,3.2,0,6.2l0,7.5c0,0.6-0.3,1.2-0.7,1.6c-2.7,2.5-4,6.1-4,10.6
		c0,12.3,8.7,19.6,23.4,19.6c14.8,0,23.7-7.4,23.7-19.7c0-4.5-1.2-7.9-3.7-10.4c-0.4-0.4-0.7-1-0.7-1.6V232
		C154.6,221.4,146.1,212.8,135.6,212.8L135.6,212.8z"/>
	<path class="st1" d="M146.1,247.9H125c-2.4,0-4.3-1.9-4.3-4.3l0-11.8c0-8.1,6.6-14.7,14.8-14.7c8.2,0,14.8,6.6,14.8,14.7l0,11.7
		C150.3,246,148.4,247.9,146.1,247.9L146.1,247.9z M135.6,221.7c-5.7,0-10.3,4.6-10.3,10.2l0,11.5h20.7V232
		C145.9,226.2,141.2,221.7,135.6,221.7L135.6,221.7z"/>
	<path class="st1" d="M135.5,255.1c-1.9,0-3.5,1.6-3.5,3.5c0,1,0.5,2,1.3,2.7c0.5,0.4,0.8,1.1,0.8,1.7v3.4c0,0,0.1,1.4,1.4,1.4
		c1.3,0,1.4-1.4,1.4-1.4v-3.4c0-0.7,0.3-1.3,0.8-1.7c0.8-0.7,1.3-1.6,1.3-2.7C139,256.7,137.4,255.1,135.5,255.1L135.5,255.1z"/>
	<path class="st1" d="M253.4,34c-5.3,0-9.7,4.3-9.7,9.7s4.3,9.7,9.7,9.7c5.3,0,9.7-4.3,9.7-9.7S258.7,34,253.4,34z M253.4,48.9
		c-2.9,0-5.2-2.3-5.2-5.2c0-2.9,2.3-5.2,5.2-5.2c2.9,0,5.2,2.3,5.2,5.2C258.6,46.6,256.3,48.9,253.4,48.9z"/>
	<path class="st1" d="M139.6,258.7c0-2.3-1.9-4.2-4.2-4.2s-4.2,1.9-4.2,4.2c0,1.5,0.8,2.7,1.9,3.4v4.2c0,1.2,1,2.2,2.2,2.2
		c1.2,0,2.2-1,2.2-2.2v-4.2C138.8,261.4,139.6,260.1,139.6,258.7z"/>
	<path class="st1" d="M63.7,112.5v7.1c0,1.2,1,2.2,2.2,2.2c1.2,0,2.2-1,2.2-2.2v-7.1H63.7z"/>
	<path class="st1" d="M76.9,112.5v7.1c0,1.2,1,2.2,2.2,2.2c1.2,0,2.2-1,2.2-2.2v-7.1H76.9z"/>
	<path class="st1" d="M102.9,112.5v7.1c0,1.2,1,2.2,2.2,2.2s2.2-1,2.2-2.2v-7.1H102.9z"/>
	<path class="st1" d="M89.9,112.5v7.1c0,1.2,1,2.2,2.2,2.2c1.2,0,2.2-1,2.2-2.2v-7.1H89.9z"/>
	<path class="st1" d="M116.4,112.5v7.1c0,1.2,1,2.2,2.2,2.2c1.2,0,2.2-1,2.2-2.2v-7.1H116.4z"/>
	<path class="st1" d="M224.8,112.5v7.1c0,1.2,1,2.2,2.2,2.2c1.2,0,2.2-1,2.2-2.2v-7.1H224.8z"/>
	<path class="st1" d="M238,112.5v7.1c0,1.2,1,2.2,2.2,2.2c1.2,0,2.2-1,2.2-2.2v-7.1H238z"/>
	<path class="st1" d="M264,112.5v7.1c0,1.2,1,2.2,2.2,2.2s2.2-1,2.2-2.2v-7.1H264z"/>
	<path class="st1" d="M251,112.5v7.1c0,1.2,1,2.2,2.2,2.2c1.2,0,2.2-1,2.2-2.2v-7.1H251z"/>
	<path class="st1" d="M277.5,112.5v7.1c0,1.2,1,2.2,2.2,2.2c1.2,0,2.2-1,2.2-2.2v-7.1H277.5z"/>
</g>
</svg>
