<?xml version="1.0" encoding="utf-8"?>
<!-- Generator: Adobe Illustrator 22.0.1, SVG Export Plug-In . SVG Version: 6.00 Build 0)  -->
<svg version="1.1" id="Capa_1" xmlns="http://www.w3.org/2000/svg" xmlns:xlink="http://www.w3.org/1999/xlink" x="0px" y="0px"
	 viewBox="0 0 690.1 290.1" style="enable-background:new 0 0 690.1 290.1;" xml:space="preserve">
<style type="text/css">
	.st0{fill:#002E6E;}
	.st1{fill:#C64E3B;}
	.st2{fill:#EED4C7;}
	.st3{fill:#FFFFFF;}
	.st4{fill:#D7BCBA;}
	.st5{fill:#C1BFD5;}
	.st6{fill:#EDD0C2;}
</style>
<g>
	<g>
		<path class="st0" d="M658.6,63c-17.4,0-31.5-14.1-31.5-31.5S641.2,0,658.6,0s31.5,14.1,31.5,31.5S675.9,63,658.6,63z M658.6,7
			c-13.5,0-24.5,11-24.5,24.5s11,24.5,24.5,24.5s24.5-11,24.5-24.5S672.1,7,658.6,7z"/>
	</g>
	<g>
		<path class="st1" d="M656.2,29.3h2c1,0,1.8-0.3,2.4-0.8c0.6-0.5,0.9-1.3,0.9-2.3c0-0.9-0.2-1.7-0.7-2.2c-0.5-0.5-1.3-0.8-2.3-0.8
			c-0.9,0-1.6,0.3-2.2,0.8s-0.9,1.2-0.9,2h-3.3c0-1,0.3-2,0.8-2.8c0.5-0.8,1.3-1.5,2.3-2s2.1-0.7,3.3-0.7c2,0,3.5,0.5,4.7,1.5
			s1.7,2.4,1.7,4.2c0,0.9-0.3,1.7-0.9,2.5c-0.6,0.8-1.3,1.4-2.2,1.8c1.1,0.4,1.9,1,2.5,1.8c0.6,0.8,0.9,1.8,0.9,2.9
			c0,1.8-0.6,3.2-1.8,4.3c-1.2,1.1-2.8,1.6-4.8,1.6c-1.9,0-3.5-0.5-4.7-1.5c-1.2-1-1.8-2.4-1.8-4.1h3.3c0,0.9,0.3,1.6,0.9,2.1
			s1.4,0.8,2.4,0.8c1,0,1.8-0.3,2.4-0.8c0.6-0.5,0.9-1.3,0.9-2.4c0-1-0.3-1.9-0.9-2.4c-0.6-0.6-1.5-0.8-2.8-0.8h-2V29.3z"/>
	</g>
	<g>
		<path class="st0" d="M627.6,32.5h-3v-2h3V32.5z M621.6,32.5h-3v-2h3V32.5z M615.6,32.5h-3v-2h3V32.5z M609.6,32.5h-3v-2h3V32.5z
			 M603.6,32.5h-3v-2h3V32.5z M597.6,32.5h-3v-2h3V32.5z M591.6,32.5h-3v-2h3V32.5z M585.6,32.5h-3v-2h3V32.5z M579.6,32.5h-3v-2h3
			V32.5z M573.6,32.5h-3v-2h3V32.5z M567.6,32.5h-3v-2h3V32.5z M561.6,32.5h-3v-2h3V32.5z M555.6,32.5h-3v-2h3V32.5z M549.6,32.5h-3
			v-2h3V32.5z M543.6,32.5h-3v-2h3V32.5z M537.6,32.5h-3v-2h3V32.5z M531.6,32.5h-3v-2h3V32.5z M525.6,32.5h-3v-2h3V32.5z
			 M519.6,32.5h-3v-2h3V32.5z M513.6,32.5h-3v-2h3V32.5z M507.6,32.5h-3v-2h3V32.5z M501.6,32.5h-3v-2h3V32.5z M495.6,32.5h-3v-2h3
			V32.5z M489.6,32.5h-3v-2h3V32.5z M483.6,32.5h-3v-2h3V32.5z M477.6,32.5h-3v-2h3V32.5z M471.6,32.5h-3v-2h3V32.5z M465.6,32.5h-3
			v-2h3V32.5z M459.6,32.5h-3v-2h3V32.5z M453.6,32.5h-3v-2h3V32.5z M447.6,32.5h-3v-2h3V32.5z M441.6,32.5h-3v-2h3V32.5z
			 M435.6,32.5h-3v-2h3V32.5z M429.6,32.5h-3v-2h3V32.5z M423.6,32.5h-3v-2h3V32.5z M417.6,32.5h-3v-2h3V32.5z M411.6,32.5h-3v-2h3
			V32.5z M405.6,32.5h-3v-2h3V32.5z M399.6,32.5h-3v-2h3V32.5z M393.6,32.5h-3v-2h3V32.5z M387.6,32.5h-3v-2h3V32.5z M381.6,32.5h-3
			v-2h3V32.5z M375.6,32.5h-3v-2h3V32.5z M369.6,32.5h-3v-2h3V32.5z M363.6,32.5h-3v-2h3V32.5z M357.6,32.5h-3v-2h3V32.5z
			 M351.6,32.5h-3v-2h3V32.5z M345.6,32.5h-3v-2h3V32.5z M339.6,32.5h-3v-2h3V32.5z M333.6,32.5h-3v-2h3V32.5z M327.6,32.5h-3v-2h3
			V32.5z M321.6,32.5h-3v-2h3V32.5z M315.6,32.5h-3v-2h3V32.5z M309.6,32.5h-3v-2h3V32.5z M303.6,32.5h-3v-2h3V32.5z M297.6,32.5h-3
			v-2h3V32.5z M291.6,32.5h-3v-2h3V32.5z M285.6,32.5h-3v-2h3V32.5z"/>
	</g>
	<g>
		<g>
			<g>
				<g>
					<path class="st2" d="M324.2,282.1c0,2.9-2.5,5.3-5.5,5.3h-53.3c-3,0-5.5-2.4-5.5-5.3v-75.5c0-2.9,2.4-5.3,5.5-5.3h53.3
						c3,0,5.5,2.4,5.5,5.3V282.1z"/>
				</g>
				<g>
					<path class="st0" d="M318.7,290.1h-53.3c-4.5,0-8.2-3.6-8.2-8v-75.5c0-4.4,3.7-8,8.2-8h53.3c4.5,0,8.2,3.6,8.2,8v75.5
						C326.9,286.5,323.2,290.1,318.7,290.1z M265.3,204c-1.5,0-2.7,1.1-2.7,2.5v75.5c0,1.4,1.2,2.6,2.7,2.6h53.3
						c1.5,0,2.7-1.1,2.7-2.6v-75.5c0-1.4-1.2-2.5-2.7-2.5H265.3z"/>
				</g>
			</g>
			<g>
				<polygon class="st0" points="295.9,203.4 290.4,203.4 290.4,185 236.6,185 236.6,161 242.1,161 242.1,179.5 295.9,179.5 				"/>
			</g>
			<g>
				<path class="st0" d="M272.9,237.9h-5.5V216c0-3.6,3.1-6.5,6.9-6.5h18.5v5.5h-18.5c-0.8,0-1.4,0.5-1.4,1V237.9z"/>
			</g>
			<g>
				<g>
					<rect x="287.9" y="212.2" class="st3" width="10.5" height="24.2"/>
				</g>
				<g>
					<path class="st0" d="M301.2,239.2h-16v-29.7h16V239.2z M290.7,233.7h5v-18.7h-5V233.7z"/>
				</g>
			</g>
			<g>
				<g>
					<rect x="285.6" y="243.5" class="st0" width="38.5" height="5.5"/>
				</g>
			</g>
			<g>
				<g>
					<rect x="176" y="114.1" class="st3" width="117" height="52.6"/>
				</g>
				<g>
					<path class="st1" d="M295.8,169.4H173.3v-58.1h122.5V169.4z M178.8,163.9h111.5v-47.1H178.8V163.9z"/>
				</g>
			</g>
			<g>
				<polygon class="st0" points="320.7,153.7 315.2,153.7 315.2,93 173.3,93 173.3,87.5 320.7,87.5 				"/>
			</g>
			<g>
				<g>
					<rect x="176" y="115" class="st3" width="13.6" height="13.6"/>
				</g>
				<g>
					<path class="st1" d="M192.4,131.4h-19.1v-19.1h19.1V131.4z M178.8,125.9h8.2v-8.2h-8.2V125.9z"/>
				</g>
			</g>
			<g>
				<g>
					<rect x="176" y="151.9" class="st3" width="13.6" height="13.6"/>
				</g>
				<g>
					<path class="st1" d="M192.4,168.3h-19.1v-19.1h19.1V168.3z M178.8,162.8h8.2v-8.2h-8.2V162.8z"/>
				</g>
			</g>
			<g>
				<g>
					<rect x="279.2" y="114.4" class="st3" width="13.7" height="13.6"/>
				</g>
				<g>
					<path class="st1" d="M295.6,130.8h-19.1v-19.1h19.1V130.8z M282,125.3h8.2v-8.2H282V125.3z"/>
				</g>
			</g>
			<g>
				<g>
					<rect x="279.4" y="152.5" class="st3" width="13.7" height="13.6"/>
				</g>
				<g>
					<path class="st1" d="M295.8,168.9h-19.1v-19.1h19.1V168.9z M282.1,163.4h8.2v-8.2h-8.2V163.4z"/>
				</g>
			</g>
			<g>
				<g>
					<path class="st3" d="M249.7,144.6c0,7.1-5.8,12.9-12.9,12.9l0,0c-7.1,0-12.9-5.8-12.9-12.9v-9.8c0-7.1,5.8-12.9,12.9-12.9l0,0
						c7.1,0,12.9,5.8,12.9,12.9V144.6z"/>
				</g>
				<g>
					<path class="st0" d="M236.7,160.3c-8.6,0-15.7-7-15.7-15.7v-9.8c0-8.6,7-15.7,15.7-15.7c8.6,0,15.7,7,15.7,15.7v9.8
						C252.4,153.3,245.4,160.3,236.7,160.3z M236.7,124.7c-5.6,0-10.2,4.6-10.2,10.2v9.8c0,5.6,4.6,10.2,10.2,10.2
						c5.6,0,10.2-4.6,10.2-10.2v-9.8C246.9,129.2,242.3,124.7,236.7,124.7z"/>
				</g>
			</g>
			<g>
				<g>
					<g>
						<g>
							<polygon class="st4" points="202.5,206.7 213.2,221.4 224.2,213.3 213.4,198.7 225.2,190 219.9,182.9 193.5,183.1 
								185.4,208.2 190.7,215.4 							"/>
						</g>
						<g>
							<path class="st0" d="M212.7,225.2l-10.8-14.7l-11.8,8.7l-7.7-10.5l9.1-28.4l29.8-0.3l7.7,10.5l-11.8,8.7l10.8,14.7
								L212.7,225.2z M203,202.8l10.8,14.7l6.5-4.8l-10.8-14.7l11.8-8.7l-2.8-3.8l-23,0.2l-7,21.9l2.8,3.8L203,202.8z"/>
						</g>
					</g>
					<g>
						<path class="st0" d="M226.9,213.8l-14.1,10.4L202,209.5l-11.8,8.7l-7-9.6l8.8-27.5l28.9-0.3l7,9.6l-11.8,8.7L226.9,213.8z
							 M213.7,218.6l7.7-5.7l-10.8-14.7l11.8-8.7l-3.5-4.7l-24,0.2l-7.3,22.8l3.5,4.7l11.8-8.7L213.7,218.6z"/>
					</g>
				</g>
				<g>
					<g>
						
							<rect x="229.5" y="218.1" transform="matrix(0.8054 -0.5927 0.5927 0.8054 -87.4538 180.7232)" class="st0" width="4" height="11"/>
					</g>
				</g>
				<g>
					<g>
						
							<rect x="221.6" y="225" transform="matrix(0.8055 -0.5926 0.5926 0.8055 -95.8849 178.2277)" class="st0" width="4" height="20.3"/>
					</g>
				</g>
			</g>
		</g>
		<g>
			<g>
				<rect x="2.7" y="86.4" class="st3" width="69.6" height="88.5"/>
			</g>
			<g>
				<path class="st0" d="M75,177.6H0V83.7h75V177.6z M5.4,172.2h64.3V89.1H5.4V172.2z"/>
			</g>
		</g>
		<g>
			<g>
				<path class="st3" d="M131,23.1c0,11.8-8.1,21.4-18.1,21.4c-10,0-18.1-9.6-18.1-21.4c0-11.8,8.1-17.5,18.1-17.5
					C122.9,5.5,131,11.3,131,23.1z"/>
			</g>
			<g>
				<path class="st0" d="M112.9,47.1c-11.4,0-20.7-10.8-20.7-24c0-12.3,8.1-20.2,20.7-20.2c12.6,0,20.7,7.9,20.7,20.2
					C133.7,36.3,124.4,47.1,112.9,47.1z M112.9,8.2c-9.6,0-15.4,5.6-15.4,14.9c0,10.3,6.9,18.7,15.4,18.7c8.5,0,15.4-8.4,15.4-18.7
					C128.3,13.8,122.6,8.2,112.9,8.2z"/>
			</g>
		</g>
		<g>
			<g>
				<path class="st5" d="M154.4,146.5V65.3c-0.9-6.2-4.4-11.1-16.2-11.1H81.6c-5.1,0-9.3,4.8-9.3,10.7v78.5h18.9l44.8-17.7V78.3
					l0,67.8L154.4,146.5z"/>
			</g>
			<g>
				<path class="st0" d="M157.1,149.2l-23.8-0.5l0-19.1l-41.6,16.4H69.6V64.9c0-7.4,5.4-13.4,12-13.4h56.6
					c11.4,0,17.5,4.4,18.8,13.4l0,0.4V149.2z M138.6,143.5l13.1,0.3V65.5c-0.7-4.5-2.8-8.6-13.5-8.6H81.6c-3.7,0-6.6,3.6-6.6,8.1
					v75.8h15.7l42.6-16.8l0-45.5h5.4L138.6,143.5z"/>
			</g>
		</g>
		<g>
			<g>
				<rect x="88.5" y="73.2" class="st0" width="5.4" height="52.5"/>
			</g>
		</g>
		<g>
			<g>
				<polygon class="st3" points="130,60.9 113.8,98.9 98.2,60.9 98.2,54.2 130,54.2 				"/>
			</g>
			<g>
				<path class="st0" d="M113.7,105.8L95.5,61.5v-9.9h37.1v10L113.7,105.8z M100.9,60.4L113.8,92l13.5-31.6v-3.5h-26.4V60.4z"/>
			</g>
		</g>
		<g>
			<g>
				<rect x="109.4" y="54.2" class="st4" width="9.1" height="9.8"/>
			</g>
			<g>
				<path class="st0" d="M121.2,66.7h-14.4V51.5h14.4V66.7z M112.1,61.3h3.7v-4.5h-3.7V61.3z"/>
			</g>
		</g>
		<g>
			<g>
				<polygon class="st4" points="105.5,78.8 109.4,63.6 118.5,63.6 122.4,78.6 113.8,98.9 				"/>
			</g>
			<g>
				<path class="st0" d="M113.7,105.8l-11-26.8l4.7-18.1h13.2l4.7,18L113.7,105.8z M108.3,78.6l5.5,13.3l5.8-13.5l-3.2-12.2h-4.9
					L108.3,78.6z"/>
			</g>
		</g>
		<g>
			<g>
				<rect x="91.2" y="125.7" class="st5" width="22.8" height="99.9"/>
			</g>
			<g>
				<path class="st0" d="M116.6,228.3H88.5V123h28.2V228.3z M93.8,222.9h17.4v-94.5H93.8V222.9z"/>
			</g>
		</g>
		<g>
			<g>
				<rect x="113.2" y="125.7" class="st5" width="22.8" height="99.9"/>
			</g>
			<g>
				<path class="st0" d="M138.6,228.3h-28.1V123h28.1V228.3z M115.8,222.9h17.4v-94.5h-17.4V222.9z"/>
			</g>
		</g>
		<g>
			<g>
				<rect x="98.2" y="108" class="st0" width="11.3" height="5.4"/>
			</g>
		</g>
		<g>
			<g>
				<rect x="119.2" y="108" class="st0" width="11.3" height="5.4"/>
			</g>
		</g>
		<g>
			<g>
				<rect x="62.2" y="212" class="st4" width="22" height="15.4"/>
			</g>
			<g>
				<path class="st0" d="M86.9,230.1H59.5v-20.7h27.3V230.1z M64.9,224.7h16.6v-10H64.9V224.7z"/>
			</g>
		</g>
		<g>
			<g>
				<rect x="84.1" y="212.1" class="st4" width="22.9" height="15.1"/>
			</g>
			<g>
				<path class="st0" d="M109.6,229.8H81.4v-20.4h28.2V229.8z M86.7,224.4h17.5v-9.7H86.7V224.4z"/>
			</g>
		</g>
		<g>
			<g>
				<rect x="91.2" y="124" class="st4" width="44.8" height="10.8"/>
			</g>
			<g>
				<path class="st0" d="M138.6,137.6H88.5v-16.2h50.1V137.6z M93.8,132.2h39.4v-5.5H93.8V132.2z"/>
			</g>
		</g>
		<g>
			<polygon class="st0" points="25.5,164.5 13.5,152.6 17.3,148.8 25.5,157 37.8,144.6 41.6,148.4 			"/>
		</g>
		<g>
			<g>
				<rect x="72.3" y="143.4" class="st3" width="18.9" height="14"/>
			</g>
			<g>
				<path class="st0" d="M93.8,160.1H69.6v-19.4h24.2V160.1z M75,154.8h13.5v-8.7H75V154.8z"/>
			</g>
		</g>
		<g>
			<g>
				<rect x="54.8" y="155" class="st3" width="58.4" height="44.8"/>
			</g>
			<g>
				<path class="st6" d="M115.8,202.5H52.1v-50.2h63.7V202.5z M57.5,197.2h53v-39.5h-53V197.2z"/>
			</g>
		</g>
		<g>
			<g>
				<rect x="54.6" y="171.8" class="st6" width="58.6" height="5.4"/>
			</g>
		</g>
		<g>
			<g>
				<rect x="65.4" y="174.5" class="st3" width="36.8" height="9.8"/>
			</g>
			<g>
				<path class="st6" d="M104.8,186.9H62.7v-15.1h42.1V186.9z M68.1,181.6h31.4v-4.4H68.1V181.6z"/>
			</g>
		</g>
		<g>
			<g>
				<rect x="15.4" y="97.7" class="st0" width="44.9" height="5.4"/>
			</g>
		</g>
		<g>
			<g>
				<rect x="15.4" y="112.2" class="st0" width="44.9" height="5.4"/>
			</g>
		</g>
		<g>
			<g>
				<rect x="15.4" y="126.8" class="st0" width="44.9" height="5.4"/>
			</g>
		</g>
	</g>
</g>
</svg>
