<?xml version="1.0" encoding="utf-8"?>
<!-- Generator: Adobe Illustrator 22.0.1, SVG Export Plug-In . SVG Version: 6.00 Build 0)  -->
<svg version="1.1" id="Capa_1" xmlns="http://www.w3.org/2000/svg" xmlns:xlink="http://www.w3.org/1999/xlink" x="0px" y="0px"
	 viewBox="0 0 115.8 55.5" style="enable-background:new 0 0 115.8 55.5;" xml:space="preserve">
<style type="text/css">
	.st0{fill:#9A999E;}
</style>
<g>
	<g>
		<path class="st0" d="M3.9,54.1c0-0.3-0.1-0.5-0.3-0.7c-0.2-0.2-0.6-0.3-1-0.4s-0.8-0.2-1.1-0.3c-0.3-0.1-0.4-0.3-0.6-0.5
			c-0.1-0.2-0.2-0.4-0.2-0.7c0-0.4,0.2-0.7,0.5-1c0.3-0.3,0.8-0.4,1.3-0.4c0.6,0,1,0.1,1.4,0.4c0.4,0.3,0.5,0.7,0.5,1.1H3.8
			c0-0.3-0.1-0.6-0.4-0.8c-0.3-0.2-0.6-0.3-1-0.3c-0.4,0-0.7,0.1-0.9,0.3c-0.2,0.2-0.3,0.4-0.3,0.7c0,0.3,0.1,0.5,0.3,0.6
			c0.2,0.1,0.5,0.3,1,0.4s0.9,0.2,1.1,0.4c0.3,0.1,0.4,0.3,0.6,0.5c0.1,0.2,0.2,0.4,0.2,0.7c0,0.4-0.2,0.8-0.5,1.1
			c-0.4,0.3-0.8,0.4-1.4,0.4c-0.6,0-1.1-0.1-1.5-0.4c-0.4-0.3-0.6-0.7-0.6-1.1h0.6c0,0.3,0.2,0.6,0.4,0.8c0.3,0.2,0.6,0.3,1,0.3
			c0.4,0,0.7-0.1,1-0.3C3.7,54.6,3.9,54.4,3.9,54.1z"/>
		<path class="st0" d="M10.2,50.3l0,0.8c0.2-0.3,0.4-0.5,0.7-0.7c0.3-0.2,0.6-0.2,1-0.2c0.8,0,1.3,0.3,1.6,1
			c0.2-0.3,0.4-0.6,0.7-0.7c0.3-0.2,0.7-0.3,1-0.3c1.1,0,1.7,0.6,1.7,1.8v3.5h-0.6V52c0-0.5-0.1-0.8-0.3-1c-0.2-0.2-0.5-0.3-1-0.3
			c-0.4,0-0.8,0.1-1,0.4s-0.4,0.6-0.5,1v3.4H13V52c0-0.4-0.1-0.8-0.3-1c-0.2-0.2-0.5-0.3-1-0.3c-0.4,0-0.7,0.1-0.9,0.3
			s-0.5,0.5-0.6,0.9v3.6H9.6v-5.2H10.2z"/>
		<path class="st0" d="M25.6,55.4c-0.1-0.2-0.1-0.4-0.1-0.7c-0.2,0.3-0.5,0.5-0.8,0.6c-0.3,0.1-0.6,0.2-1,0.2
			c-0.5,0-0.9-0.1-1.2-0.4S22,54.5,22,54.1c0-0.5,0.2-0.9,0.6-1.2c0.4-0.3,1-0.4,1.8-0.4h1v-0.6c0-0.4-0.1-0.7-0.3-0.9
			s-0.6-0.3-1-0.3c-0.4,0-0.7,0.1-1,0.3c-0.3,0.2-0.4,0.5-0.4,0.7l-0.6,0c0-0.4,0.2-0.8,0.6-1.1c0.4-0.3,0.9-0.5,1.4-0.5
			c0.6,0,1,0.1,1.4,0.4c0.3,0.3,0.5,0.7,0.5,1.2v2.5c0,0.5,0.1,0.9,0.2,1.1v0.1H25.6z M23.8,55c0.4,0,0.7-0.1,1-0.3
			c0.3-0.2,0.5-0.4,0.7-0.7v-1.1h-1c-0.6,0-1,0.1-1.3,0.3c-0.3,0.2-0.5,0.5-0.5,0.8c0,0.3,0.1,0.5,0.3,0.7
			C23.1,54.9,23.4,55,23.8,55z"/>
		<path class="st0" d="M33.9,50.7c-0.1,0-0.3,0-0.4,0c-0.4,0-0.7,0.1-0.9,0.3c-0.2,0.2-0.4,0.5-0.5,0.9v3.6h-0.6v-5.2h0.6l0,0.8
			c0.3-0.6,0.8-0.9,1.5-0.9c0.2,0,0.3,0,0.4,0.1L33.9,50.7z"/>
		<path class="st0" d="M39.9,48.9v1.3h1.1v0.5h-1.1v3.5c0,0.3,0.1,0.5,0.2,0.6c0.1,0.1,0.3,0.2,0.5,0.2c0.1,0,0.3,0,0.5,0l0,0.5
			c-0.2,0.1-0.4,0.1-0.6,0.1c-0.4,0-0.7-0.1-0.9-0.3s-0.3-0.6-0.3-1v-3.5h-1v-0.5h1v-1.3H39.9z"/>
		<path class="st0" d="M52.3,51.8c0-0.3,0.1-0.5,0.2-0.6S53,51,53.2,51c0.3,0,0.5,0.1,0.6,0.2c0.2,0.2,0.2,0.4,0.3,0.6V52
			c0,0.3-0.1,0.5-0.2,0.6c-0.2,0.2-0.4,0.2-0.6,0.2c-0.3,0-0.5-0.1-0.6-0.2c-0.2-0.2-0.2-0.4-0.2-0.6V51.8z"/>
		<path class="st0" d="M68.9,54.1c0-0.3-0.1-0.5-0.3-0.7s-0.6-0.3-1-0.4c-0.5-0.1-0.8-0.2-1.1-0.3c-0.3-0.1-0.4-0.3-0.6-0.5
			c-0.1-0.2-0.2-0.4-0.2-0.7c0-0.4,0.2-0.7,0.5-1c0.3-0.3,0.8-0.4,1.3-0.4c0.6,0,1,0.1,1.4,0.4c0.3,0.3,0.5,0.7,0.5,1.1h-0.6
			c0-0.3-0.1-0.6-0.4-0.8c-0.3-0.2-0.6-0.3-1-0.3c-0.4,0-0.7,0.1-0.9,0.3s-0.3,0.4-0.3,0.7c0,0.3,0.1,0.5,0.3,0.6
			c0.2,0.1,0.5,0.3,1,0.4s0.9,0.2,1.1,0.4c0.3,0.1,0.4,0.3,0.6,0.5c0.1,0.2,0.2,0.4,0.2,0.7c0,0.4-0.2,0.8-0.5,1.1
			c-0.4,0.3-0.8,0.4-1.4,0.4c-0.6,0-1.1-0.1-1.5-0.4c-0.4-0.3-0.6-0.7-0.6-1.1h0.6c0,0.3,0.2,0.6,0.4,0.8c0.3,0.2,0.6,0.3,1,0.3
			c0.4,0,0.7-0.1,1-0.3S68.9,54.4,68.9,54.1z"/>
		<path class="st0" d="M76.7,55.5c-0.4,0-0.8-0.1-1.2-0.3s-0.6-0.5-0.8-0.9s-0.3-0.8-0.3-1.3v-0.2c0-0.5,0.1-0.9,0.3-1.3
			c0.2-0.4,0.5-0.7,0.8-0.9s0.7-0.3,1.1-0.3c0.6,0,1.1,0.2,1.5,0.6c0.4,0.4,0.6,1,0.6,1.8v0.3H75V53c0,0.6,0.2,1.1,0.5,1.5
			c0.3,0.4,0.8,0.6,1.3,0.6c0.3,0,0.6-0.1,0.8-0.2s0.4-0.3,0.6-0.5l0.4,0.3C78.1,55.2,77.5,55.5,76.7,55.5z M76.6,50.7
			c-0.4,0-0.8,0.2-1.1,0.5c-0.3,0.3-0.5,0.7-0.5,1.3h3.1v-0.1c0-0.5-0.2-0.9-0.4-1.2S77.1,50.7,76.6,50.7z"/>
		<path class="st0" d="M85.6,55.1c0.4,0,0.7-0.1,1-0.3c0.3-0.2,0.4-0.5,0.4-0.9h0.6c0,0.3-0.1,0.6-0.3,0.9s-0.4,0.5-0.7,0.6
			c-0.3,0.1-0.6,0.2-1,0.2c-0.7,0-1.2-0.2-1.6-0.7s-0.6-1.1-0.6-1.9v-0.2c0-0.5,0.1-1,0.3-1.4c0.2-0.4,0.4-0.7,0.8-0.9
			c0.3-0.2,0.7-0.3,1.2-0.3c0.6,0,1,0.2,1.4,0.5c0.4,0.3,0.6,0.8,0.6,1.3h-0.6c0-0.4-0.2-0.7-0.4-1c-0.3-0.2-0.6-0.4-1-0.4
			c-0.5,0-0.9,0.2-1.2,0.6c-0.3,0.4-0.4,0.9-0.4,1.6V53c0,0.7,0.1,1.2,0.4,1.5C84.7,54.9,85.1,55.1,85.6,55.1z"/>
		<path class="st0" d="M96.1,54.8c-0.3,0.5-0.9,0.8-1.7,0.8c-0.6,0-1-0.2-1.3-0.5c-0.3-0.3-0.4-0.8-0.4-1.4v-3.4h0.6v3.3
			c0,1,0.4,1.5,1.2,1.5c0.8,0,1.4-0.3,1.6-1v-3.8h0.6v5.2h-0.6L96.1,54.8z"/>
		<path class="st0" d="M104.4,50.7c-0.1,0-0.3,0-0.4,0c-0.4,0-0.7,0.1-0.9,0.3s-0.4,0.5-0.5,0.9v3.6H102v-5.2h0.6l0,0.8
			c0.3-0.6,0.8-0.9,1.5-0.9c0.2,0,0.3,0,0.4,0.1L104.4,50.7z"/>
		<path class="st0" d="M111.2,55.5c-0.4,0-0.8-0.1-1.2-0.3c-0.4-0.2-0.6-0.5-0.8-0.9s-0.3-0.8-0.3-1.3v-0.2c0-0.5,0.1-0.9,0.3-1.3
			c0.2-0.4,0.5-0.7,0.8-0.9c0.3-0.2,0.7-0.3,1.1-0.3c0.6,0,1.1,0.2,1.5,0.6c0.4,0.4,0.6,1,0.6,1.8v0.3h-3.7V53
			c0,0.6,0.2,1.1,0.5,1.5c0.3,0.4,0.8,0.6,1.3,0.6c0.3,0,0.6-0.1,0.8-0.2s0.4-0.3,0.6-0.5l0.4,0.3C112.6,55.2,112,55.5,111.2,55.5z
			 M111.1,50.7c-0.4,0-0.8,0.2-1.1,0.5c-0.3,0.3-0.5,0.7-0.5,1.3h3.1v-0.1c0-0.5-0.2-0.9-0.4-1.2C111.9,50.8,111.5,50.7,111.1,50.7z
			"/>
	</g>
	<g>
		<rect x="36.1" y="8.6" class="st0" width="9" height="33.5"/>
	</g>
	<g>
		<rect x="36.1" class="st0" width="9" height="6"/>
	</g>
	<g>
		<path class="st0" d="M60.7,8.6l0.3,3.9c2.4-3,5.6-4.5,9.6-4.5c3.5,0,6.2,1,7.9,3.1c1.7,2.1,2.6,5.2,2.7,9.3V42h-8.9V20.7
			c0-1.9-0.4-3.3-1.2-4.1c-0.8-0.9-2.2-1.3-4.1-1.3c-2.5,0-4.4,1.1-5.7,3.2V42h-8.9V8.6H60.7z"/>
	</g>
	<g>
		<path class="st0" d="M101.8,35.5c1.6,0,3-0.5,4-1.4c1-0.9,1.6-2.1,1.6-3.6h8.4c0,2.3-0.6,4.3-1.9,6.2c-1.2,1.9-2.9,3.3-5,4.4
			c-2.1,1-4.4,1.6-7,1.6c-4.8,0-8.6-1.5-11.3-4.6c-2.8-3-4.1-7.2-4.1-12.6v-0.6c0-5.2,1.4-9.3,4.1-12.3C93.4,9.5,97.1,8,101.9,8
			c4.2,0,7.5,1.2,10.1,3.6c2.5,2.4,3.8,5.5,3.8,9.5h-8.4c0-1.7-0.6-3.2-1.6-4.2c-1-1.1-2.4-1.6-4.1-1.6c-2.1,0-3.7,0.8-4.7,2.3
			c-1.1,1.5-1.6,4-1.6,7.4v0.9c0,3.4,0.5,5.9,1.6,7.4C98.1,34.7,99.7,35.5,101.8,35.5z"/>
	</g>
	<g>
		<g>
			<polygon class="st0" points="19.9,8.6 1.6,8.6 1.6,16.4 13.6,16.4 			"/>
		</g>
		<g>
			<polygon class="st0" points="10.1,42 29.1,42 29.1,34.2 16.4,34.2 			"/>
		</g>
		<g>
			<polygon class="st0" points="0,36.5 0,42 7.5,42 29.4,14.9 29.4,8.6 22.5,8.6 			"/>
		</g>
	</g>
</g>
</svg>
