<?xml version="1.0" encoding="utf-8"?>
<!-- Generator: Adobe Illustrator 22.0.1, SVG Export Plug-In . SVG Version: 6.00 Build 0)  -->
<svg version="1.1" id="Capa_1" xmlns="http://www.w3.org/2000/svg" xmlns:xlink="http://www.w3.org/1999/xlink" x="0px" y="0px"
	 viewBox="0 0 217 111.3" style="enable-background:new 0 0 217 111.3;" xml:space="preserve">
<style type="text/css">
	.st0{fill:#FFFFFF;}
</style>
<g>
	<g>
		<path class="st0" d="M7.1,104c0-0.5-0.2-0.9-0.6-1.3c-0.4-0.3-1.1-0.6-1.9-0.7c-0.8-0.2-1.5-0.4-2-0.6c-0.5-0.2-0.8-0.5-1-0.9
			c-0.2-0.3-0.3-0.7-0.3-1.2c0-0.8,0.3-1.4,0.9-1.9c0.6-0.5,1.4-0.7,2.4-0.7c1.1,0,1.9,0.3,2.6,0.8c0.6,0.5,1,1.2,1,2.1H7.1
			c0-0.6-0.2-1-0.7-1.4c-0.5-0.4-1.1-0.6-1.8-0.6c-0.7,0-1.3,0.2-1.7,0.5s-0.6,0.7-0.6,1.2c0,0.5,0.2,0.8,0.5,1.1
			c0.4,0.3,1,0.5,1.9,0.7c0.9,0.2,1.6,0.5,2.1,0.7c0.5,0.2,0.8,0.5,1,0.9s0.3,0.8,0.3,1.3c0,0.8-0.3,1.5-1,1.9
			c-0.7,0.5-1.5,0.7-2.5,0.7c-1.1,0-2-0.3-2.7-0.8s-1-1.2-1-2H2c0,0.6,0.3,1.1,0.8,1.4s1.1,0.5,1.9,0.5c0.7,0,1.3-0.2,1.8-0.5
			C6.9,104.9,7.1,104.5,7.1,104z"/>
		<path class="st0" d="M18.7,96.9l0,1.6c0.4-0.6,0.8-1,1.3-1.3c0.5-0.3,1.1-0.4,1.8-0.4c1.5,0,2.5,0.6,2.9,1.9
			c0.3-0.6,0.8-1.1,1.4-1.4c0.6-0.3,1.2-0.5,1.9-0.5c2.1,0,3.1,1.1,3.1,3.4v6.4h-1.1v-6.3c0-0.9-0.2-1.5-0.6-1.9
			c-0.4-0.4-1-0.6-1.8-0.6c-0.8,0-1.4,0.3-1.9,0.7s-0.8,1.1-0.9,1.8v6.3h-1.1V100c0-0.8-0.2-1.4-0.6-1.8c-0.4-0.4-1-0.6-1.8-0.6
			c-0.7,0-1.2,0.2-1.7,0.6c-0.5,0.4-0.8,0.9-1.1,1.7v6.6h-1.1v-9.6H18.7z"/>
		<path class="st0" d="M47.1,106.4c-0.1-0.3-0.2-0.7-0.2-1.3c-0.4,0.5-0.8,0.9-1.4,1.1c-0.6,0.3-1.2,0.4-1.8,0.4
			c-0.9,0-1.7-0.3-2.2-0.8c-0.6-0.5-0.9-1.2-0.9-1.9c0-0.9,0.4-1.7,1.2-2.2s1.9-0.8,3.2-0.8h1.9v-1.1c0-0.7-0.2-1.2-0.6-1.6
			c-0.4-0.4-1-0.6-1.8-0.6c-0.7,0-1.3,0.2-1.8,0.6c-0.5,0.4-0.7,0.8-0.7,1.4l-1.1,0c0-0.8,0.4-1.4,1.1-2s1.6-0.8,2.6-0.8
			c1.1,0,1.9,0.3,2.5,0.8s0.9,1.3,1,2.2v4.5c0,0.9,0.1,1.6,0.3,2.1v0.1H47.1z M43.8,105.7c0.7,0,1.3-0.2,1.9-0.5s1-0.8,1.2-1.4v-2.1
			H45c-1.1,0-1.9,0.2-2.5,0.6s-0.9,0.9-0.9,1.5c0,0.5,0.2,1,0.6,1.3C42.6,105.5,43.1,105.7,43.8,105.7z"/>
		<path class="st0" d="M62.4,97.8c-0.2,0-0.5-0.1-0.7-0.1c-0.7,0-1.2,0.2-1.7,0.6c-0.5,0.4-0.8,0.9-1,1.6v6.6H58v-9.6h1l0,1.5
			c0.6-1.1,1.5-1.7,2.7-1.7c0.3,0,0.5,0,0.7,0.1L62.4,97.8z"/>
		<path class="st0" d="M73.4,94.4v2.4h2v0.9h-2v6.4c0,0.5,0.1,0.9,0.3,1.2c0.2,0.3,0.5,0.4,1,0.4c0.2,0,0.5,0,0.9-0.1l0,0.9
			c-0.3,0.1-0.7,0.1-1.1,0.1c-0.7,0-1.3-0.2-1.6-0.6c-0.3-0.4-0.5-1-0.5-1.9v-6.4h-1.8v-0.9h1.8v-2.4H73.4z"/>
		<path class="st0" d="M96.4,99.8c0-0.5,0.1-0.8,0.5-1.1c0.3-0.3,0.7-0.4,1.2-0.4c0.5,0,0.9,0.1,1.2,0.4c0.3,0.3,0.5,0.7,0.5,1.1
			v0.4c0,0.5-0.2,0.9-0.5,1.1c-0.3,0.3-0.7,0.4-1.2,0.4c-0.5,0-0.9-0.1-1.2-0.4c-0.3-0.3-0.5-0.7-0.5-1.1V99.8z"/>
		<path class="st0" d="M126.9,104c0-0.5-0.2-0.9-0.6-1.3c-0.4-0.3-1.1-0.6-1.9-0.7c-0.8-0.2-1.5-0.4-2-0.6c-0.5-0.2-0.8-0.5-1-0.9
			c-0.2-0.3-0.3-0.7-0.3-1.2c0-0.8,0.3-1.4,0.9-1.9c0.6-0.5,1.4-0.7,2.4-0.7c1.1,0,1.9,0.3,2.6,0.8c0.6,0.5,1,1.2,1,2.1h-1.1
			c0-0.6-0.2-1-0.7-1.4s-1.1-0.6-1.8-0.6c-0.7,0-1.3,0.2-1.7,0.5c-0.4,0.3-0.6,0.7-0.6,1.2c0,0.5,0.2,0.8,0.5,1.1
			c0.4,0.3,1,0.5,1.9,0.7c0.9,0.2,1.6,0.5,2.1,0.7c0.5,0.2,0.8,0.5,1,0.9c0.2,0.3,0.3,0.8,0.3,1.3c0,0.8-0.3,1.5-1,1.9
			c-0.7,0.5-1.5,0.7-2.5,0.7c-1.1,0-2-0.3-2.7-0.8s-1-1.2-1-2h1.1c0,0.6,0.3,1.1,0.8,1.4s1.1,0.5,1.9,0.5c0.7,0,1.3-0.2,1.8-0.5
			C126.7,104.9,126.9,104.5,126.9,104z"/>
		<path class="st0" d="M141.3,106.6c-0.8,0-1.5-0.2-2.2-0.6c-0.7-0.4-1.2-1-1.5-1.7s-0.5-1.5-0.5-2.4v-0.4c0-0.9,0.2-1.7,0.5-2.5
			c0.4-0.7,0.9-1.3,1.5-1.7c0.6-0.4,1.3-0.6,2.1-0.6c1.2,0,2.1,0.4,2.8,1.2c0.7,0.8,1,1.9,1,3.2v0.6h-6.8v0.2c0,1.1,0.3,2,0.9,2.7
			s1.4,1.1,2.3,1.1c0.6,0,1.1-0.1,1.5-0.3c0.4-0.2,0.8-0.5,1.2-1l0.7,0.5C143.9,106,142.8,106.6,141.3,106.6z M141.1,97.6
			c-0.8,0-1.5,0.3-2,0.9c-0.5,0.6-0.9,1.4-1,2.4h5.7v-0.1c0-0.9-0.3-1.7-0.8-2.2C142.6,97.9,141.9,97.6,141.1,97.6z"/>
		<path class="st0" d="M157.7,105.7c0.7,0,1.4-0.2,1.9-0.6s0.8-1,0.8-1.6h1c0,0.6-0.2,1.1-0.5,1.6c-0.3,0.5-0.8,0.9-1.3,1.1
			c-0.6,0.3-1.2,0.4-1.8,0.4c-1.3,0-2.3-0.4-3-1.3s-1.1-2-1.1-3.5v-0.3c0-0.9,0.2-1.8,0.5-2.5s0.8-1.3,1.4-1.7
			c0.6-0.4,1.3-0.6,2.2-0.6c1,0,1.9,0.3,2.6,0.9c0.7,0.6,1,1.4,1.1,2.5h-1c0-0.7-0.3-1.4-0.8-1.8c-0.5-0.5-1.1-0.7-1.9-0.7
			c-1,0-1.7,0.3-2.2,1c-0.5,0.7-0.8,1.7-0.8,2.9v0.3c0,1.2,0.3,2.2,0.8,2.9C156,105.4,156.8,105.7,157.7,105.7z"/>
		<path class="st0" d="M176.9,105.2c-0.6,0.9-1.7,1.4-3,1.4c-1,0-1.8-0.3-2.3-0.9c-0.5-0.6-0.8-1.5-0.8-2.6v-6.2h1.1v6.1
			c0,1.8,0.7,2.7,2.2,2.7c1.5,0,2.5-0.6,2.9-1.9v-6.9h1.1v9.6h-1L176.9,105.2z"/>
		<path class="st0" d="M192.4,97.8c-0.2,0-0.5-0.1-0.7-0.1c-0.7,0-1.2,0.2-1.7,0.6s-0.8,0.9-1,1.6v6.6h-1.1v-9.6h1l0,1.5
			c0.6-1.1,1.5-1.7,2.7-1.7c0.3,0,0.5,0,0.7,0.1L192.4,97.8z"/>
		<path class="st0" d="M204.8,106.6c-0.8,0-1.5-0.2-2.2-0.6s-1.2-1-1.5-1.7s-0.5-1.5-0.5-2.4v-0.4c0-0.9,0.2-1.7,0.5-2.5
			c0.4-0.7,0.9-1.3,1.5-1.7c0.6-0.4,1.3-0.6,2.1-0.6c1.2,0,2.1,0.4,2.8,1.2c0.7,0.8,1,1.9,1,3.2v0.6h-6.8v0.2c0,1.1,0.3,2,0.9,2.7
			c0.6,0.7,1.4,1.1,2.3,1.1c0.6,0,1.1-0.1,1.5-0.3c0.4-0.2,0.8-0.5,1.2-1l0.7,0.5C207.4,106,206.3,106.6,204.8,106.6z M204.6,97.6
			c-0.8,0-1.5,0.3-2,0.9s-0.9,1.4-1,2.4h5.7v-0.1c0-0.9-0.3-1.7-0.8-2.2S205.4,97.6,204.6,97.6z"/>
	</g>
	<g>
		<rect x="70.2" y="15.8" class="st0" width="16.5" height="61.6"/>
	</g>
	<g>
		<rect x="70.2" class="st0" width="16.5" height="11"/>
	</g>
	<g>
		<path class="st0" d="M115.4,15.8l0.5,7.1c4.4-5.5,10.3-8.3,17.7-8.3c6.5,0,11.4,1.9,14.6,5.8c3.2,3.8,4.8,9.6,4.9,17.2v39.8h-16.5
			V38c0-3.5-0.8-6-2.3-7.6c-1.5-1.6-4-2.4-7.6-2.4c-4.6,0-8.1,2-10.4,5.9v43.4H99.9V15.8H115.4z"/>
	</g>
	<g>
		<path class="st0" d="M191.2,65.3c3,0,5.5-0.8,7.4-2.5c1.9-1.7,2.9-3.9,3-6.7H217c0,4.2-1.2,8-3.4,11.5c-2.2,3.5-5.3,6.2-9.2,8.1
			c-3.9,1.9-8.2,2.9-12.9,2.9c-8.8,0-15.8-2.8-20.8-8.4c-5.1-5.6-7.6-13.3-7.6-23.2v-1.1c0-9.5,2.5-17.1,7.6-22.7
			c5-5.7,12-8.5,20.8-8.5c7.7,0,13.9,2.2,18.5,6.6c4.6,4.4,7,10.2,7.1,17.5h-15.4c-0.1-3.2-1.1-5.8-3-7.8c-1.9-2-4.4-3-7.5-3
			c-3.8,0-6.7,1.4-8.7,4.2c-2,2.8-2.9,7.3-2.9,13.6v1.7c0,6.3,1,10.9,2.9,13.7C184.3,63.9,187.3,65.3,191.2,65.3z"/>
	</g>
	<g>
		<g>
			<polygon class="st0" points="40.4,15.8 6.7,15.8 6.7,30.1 28.8,30.1 			"/>
		</g>
		<g>
			<polygon class="st0" points="22.3,77.4 57.4,77.4 57.4,63 34,63 			"/>
		</g>
		<g>
			<polygon class="st0" points="3.7,67.1 3.7,77.4 17.6,77.4 58,27.4 58,15.8 45.2,15.8 			"/>
		</g>
	</g>
</g>
</svg>
