<?xml version="1.0" encoding="utf-8"?>
<!-- Generator: Adobe Illustrator 22.0.1, SVG Export Plug-In . SVG Version: 6.00 Build 0)  -->
<svg version="1.1" id="Capa_1" xmlns="http://www.w3.org/2000/svg" xmlns:xlink="http://www.w3.org/1999/xlink" x="0px" y="0px"
	 viewBox="0 0 269.8 15.8" style="enable-background:new 0 0 269.8 15.8;" xml:space="preserve">
<style type="text/css">
	.st0{fill:#FFFFFF;}
</style>
<g>
	<path class="st0" d="M8.1,12.5c0-0.7-0.3-1.2-0.8-1.6c-0.5-0.4-1.4-0.7-2.5-1C3.7,9.6,2.8,9.3,2.2,9C1.6,8.7,1.2,8.4,0.9,7.9
		C0.6,7.5,0.4,7,0.4,6.3c0-1,0.4-1.8,1.2-2.4s1.9-1,3.1-1c1.4,0,2.5,0.3,3.3,1C9,4.7,9.4,5.6,9.4,6.7H8c0-0.7-0.3-1.3-0.9-1.8
		C6.5,4.4,5.7,4.1,4.8,4.1c-0.9,0-1.6,0.2-2.2,0.6S1.8,5.7,1.8,6.3c0,0.6,0.2,1.1,0.7,1.4C2.9,8.1,3.8,8.4,5,8.7
		C6.2,9,7.1,9.3,7.7,9.6c0.6,0.3,1,0.7,1.3,1.2c0.3,0.5,0.4,1,0.4,1.6c0,1-0.4,1.9-1.3,2.5c-0.8,0.6-2,0.9-3.3,0.9
		c-1.4,0-2.6-0.4-3.5-1.1C0.5,14.1,0,13.2,0,12.1h1.4c0.1,0.8,0.4,1.4,1,1.9s1.5,0.7,2.5,0.7c1,0,1.7-0.2,2.3-0.6
		C7.8,13.6,8.1,13.1,8.1,12.5z"/>
	<path class="st0" d="M23.2,3.2l0,2c0.5-0.8,1-1.3,1.7-1.7C25.7,3.1,26.4,3,27.3,3c2,0,3.2,0.8,3.7,2.4c0.4-0.8,1-1.4,1.8-1.8
		C33.5,3.2,34.4,3,35.3,3c2.7,0,4,1.5,4.1,4.4v8.3H38V7.4c0-1.1-0.2-1.9-0.7-2.5c-0.5-0.5-1.2-0.8-2.3-0.8c-1,0-1.8,0.3-2.5,1
		c-0.7,0.6-1.1,1.4-1.1,2.3v8.2h-1.4V7.3c0-1.1-0.3-1.9-0.8-2.4c-0.5-0.5-1.3-0.8-2.3-0.8c-0.9,0-1.6,0.2-2.2,0.7
		c-0.6,0.5-1.1,1.2-1.4,2.2v8.5h-1.4V3.2H23.2z"/>
	<path class="st0" d="M60.1,15.6c-0.1-0.4-0.2-1-0.3-1.7c-0.5,0.6-1.1,1.1-1.8,1.5s-1.5,0.5-2.4,0.5c-1.2,0-2.2-0.3-2.9-1
		c-0.7-0.7-1.1-1.5-1.1-2.5c0-1.2,0.5-2.2,1.5-2.9c1-0.7,2.4-1.1,4.2-1.1h2.5V7c0-0.9-0.3-1.6-0.8-2.1s-1.3-0.8-2.4-0.8
		c-1,0-1.8,0.2-2.4,0.7c-0.6,0.5-0.9,1.1-0.9,1.8l-1.4,0c0-1,0.5-1.8,1.4-2.6c0.9-0.7,2-1.1,3.4-1.1c1.4,0,2.5,0.3,3.3,1
		c0.8,0.7,1.2,1.7,1.2,2.9v5.9c0,1.2,0.1,2.1,0.4,2.7v0.1H60.1z M55.8,14.6c0.9,0,1.7-0.2,2.5-0.7s1.3-1,1.6-1.8V9.4h-2.5
		c-1.4,0-2.4,0.3-3.2,0.8s-1.2,1.2-1.2,2c0,0.7,0.3,1.3,0.8,1.7C54.3,14.4,54.9,14.6,55.8,14.6z"/>
	<path class="st0" d="M80,4.4c-0.3-0.1-0.6-0.1-0.9-0.1c-0.9,0-1.6,0.2-2.2,0.7c-0.6,0.5-1,1.2-1.3,2.1v8.5h-1.4V3.2h1.3l0,2
		C76.4,3.7,77.5,3,79.1,3c0.4,0,0.7,0,0.9,0.1L80,4.4z"/>
	<path class="st0" d="M94.3,0v3.2h2.6v1.1h-2.6v8.3c0,0.7,0.1,1.2,0.4,1.5c0.2,0.3,0.7,0.5,1.2,0.5c0.2,0,0.6,0,1.1-0.1l0.1,1.1
		c-0.4,0.1-0.9,0.2-1.5,0.2c-0.9,0-1.6-0.3-2.1-0.8c-0.4-0.5-0.6-1.4-0.6-2.4V4.3h-2.3V3.2h2.3V0H94.3z"/>
	<path class="st0" d="M124.2,7c0-0.6,0.2-1.1,0.6-1.5c0.4-0.4,0.9-0.6,1.5-0.6c0.6,0,1.1,0.2,1.5,0.6c0.4,0.4,0.6,0.9,0.6,1.4v0.5
		c0,0.6-0.2,1.1-0.6,1.5c-0.4,0.4-0.9,0.6-1.5,0.6c-0.6,0-1.2-0.2-1.6-0.6c-0.4-0.4-0.6-0.9-0.6-1.5V7z"/>
	<path class="st0" d="M163.9,12.5c0-0.7-0.3-1.2-0.8-1.6c-0.5-0.4-1.4-0.7-2.5-1s-2-0.5-2.6-0.8s-1.1-0.7-1.4-1.1
		c-0.3-0.4-0.4-1-0.4-1.6c0-1,0.4-1.8,1.2-2.4c0.8-0.6,1.9-1,3.1-1c1.4,0,2.5,0.3,3.3,1c0.8,0.7,1.3,1.6,1.3,2.7h-1.4
		c0-0.7-0.3-1.3-0.9-1.8c-0.6-0.5-1.4-0.7-2.3-0.7c-0.9,0-1.6,0.2-2.2,0.6s-0.8,0.9-0.8,1.6c0,0.6,0.2,1.1,0.7,1.4s1.3,0.7,2.5,0.9
		c1.2,0.3,2.1,0.6,2.7,0.9c0.6,0.3,1,0.7,1.3,1.2c0.3,0.5,0.4,1,0.4,1.6c0,1-0.4,1.9-1.3,2.5c-0.8,0.6-2,0.9-3.3,0.9
		c-1.4,0-2.6-0.4-3.5-1.1c-0.9-0.7-1.4-1.6-1.4-2.7h1.4c0.1,0.8,0.4,1.4,1,1.9c0.6,0.4,1.4,0.7,2.5,0.7c1,0,1.7-0.2,2.3-0.6
		C163.6,13.6,163.9,13.1,163.9,12.5z"/>
	<path class="st0" d="M182.6,15.8c-1.1,0-2-0.3-2.9-0.8c-0.9-0.5-1.5-1.2-2-2.2c-0.5-0.9-0.7-2-0.7-3.1V9.3c0-1.2,0.2-2.3,0.7-3.2
		c0.5-1,1.1-1.7,1.9-2.3c0.8-0.5,1.7-0.8,2.7-0.8c1.5,0,2.7,0.5,3.6,1.5c0.9,1,1.3,2.4,1.3,4.2v0.8h-8.9v0.3c0,1.4,0.4,2.6,1.2,3.5
		c0.8,0.9,1.8,1.4,3.1,1.4c0.7,0,1.4-0.1,1.9-0.4s1.1-0.7,1.5-1.3l0.9,0.7C186,15.1,184.5,15.8,182.6,15.8z M182.4,4.1
		c-1,0-1.9,0.4-2.6,1.1s-1.1,1.8-1.3,3.1h7.5V8.2c0-1.2-0.4-2.2-1-2.9C184.2,4.5,183.4,4.1,182.4,4.1z"/>
	<path class="st0" d="M204,14.7c1,0,1.8-0.3,2.4-0.8s1-1.2,1.1-2.1h1.3c0,0.8-0.3,1.5-0.7,2.1c-0.4,0.6-1,1.1-1.7,1.5
		c-0.7,0.4-1.5,0.5-2.3,0.5c-1.6,0-2.9-0.6-3.9-1.7c-1-1.1-1.4-2.7-1.4-4.6V9.2c0-1.2,0.2-2.3,0.6-3.3c0.4-0.9,1-1.7,1.8-2.2
		s1.7-0.8,2.8-0.8c1.4,0,2.5,0.4,3.4,1.2s1.4,1.9,1.4,3.2h-1.3c-0.1-1-0.4-1.8-1.1-2.4s-1.4-0.9-2.4-0.9c-1.2,0-2.2,0.4-2.9,1.3
		s-1,2.2-1,3.8v0.4c0,1.6,0.3,2.8,1,3.7C201.7,14.2,202.7,14.7,204,14.7z"/>
	<path class="st0" d="M228.9,14c-0.8,1.2-2.1,1.8-4,1.8c-1.3,0-2.3-0.4-3-1.2c-0.7-0.8-1-1.9-1.1-3.4V3.2h1.4v7.9
		c0,2.4,1,3.6,2.9,3.6c2,0,3.3-0.8,3.8-2.5v-9h1.4v12.4h-1.3L228.9,14z"/>
	<path class="st0" d="M249,4.4c-0.3-0.1-0.6-0.1-0.9-0.1c-0.9,0-1.6,0.2-2.2,0.7c-0.6,0.5-1,1.2-1.3,2.1v8.5h-1.4V3.2h1.3l0,2
		c0.7-1.5,1.9-2.2,3.5-2.2c0.4,0,0.7,0,0.9,0.1L249,4.4z"/>
	<path class="st0" d="M265.2,15.8c-1.1,0-2-0.3-2.9-0.8c-0.9-0.5-1.5-1.2-2-2.2c-0.5-0.9-0.7-2-0.7-3.1V9.3c0-1.2,0.2-2.3,0.7-3.2
		c0.5-1,1.1-1.7,1.9-2.3c0.8-0.5,1.7-0.8,2.7-0.8c1.5,0,2.7,0.5,3.6,1.5c0.9,1,1.3,2.4,1.3,4.2v0.8H261v0.3c0,1.4,0.4,2.6,1.2,3.5
		c0.8,0.9,1.8,1.4,3.1,1.4c0.7,0,1.4-0.1,1.9-0.4s1.1-0.7,1.5-1.3l0.9,0.7C268.6,15.1,267.1,15.8,265.2,15.8z M264.9,4.1
		c-1,0-1.9,0.4-2.6,1.1S261.2,7,261,8.3h7.5V8.2c0-1.2-0.4-2.2-1-2.9C266.8,4.5,266,4.1,264.9,4.1z"/>
</g>
</svg>
