<?xml version="1.0" encoding="utf-8"?>
<!-- Generator: Adobe Illustrator 22.0.1, SVG Export Plug-In . SVG Version: 6.00 Build 0)  -->
<svg version="1.1" id="Capa_1" xmlns="http://www.w3.org/2000/svg" xmlns:xlink="http://www.w3.org/1999/xlink" x="0px" y="0px"
	 viewBox="0 0 520.2 53.6" style="enable-background:new 0 0 520.2 53.6;" xml:space="preserve">
<style type="text/css">
	.st0{fill:#FFFFFF;}
</style>
<g>
	<path class="st0" d="M25.1,41.1c0-1.4-0.7-2.5-2.1-3.3c-1.4-0.8-3.6-1.5-6.6-2.1C6.4,33.6,1.3,29.3,1.3,22.9c0-3.8,1.6-6.9,4.7-9.4
		c3.1-2.5,7.2-3.8,12.3-3.8c5.4,0,9.7,1.3,12.9,3.8c3.2,2.5,4.8,5.8,4.8,9.9H24.7c0-1.6-0.5-3-1.6-4c-1-1.1-2.7-1.6-4.9-1.6
		c-1.9,0-3.4,0.4-4.4,1.3s-1.6,2-1.6,3.3c0,1.3,0.6,2.3,1.8,3c1.2,0.8,3.2,1.4,6,2c2.8,0.6,5.2,1.2,7.1,1.9c6,2.2,9,6,9,11.4
		c0,3.9-1.7,7-5,9.4c-3.3,2.4-7.6,3.6-12.9,3.6c-3.6,0-6.7-0.6-9.5-1.9s-4.9-3-6.5-5.2C0.8,44.3,0,41.9,0,39.4h10.7
		c0.1,2,0.8,3.6,2.2,4.6s3.2,1.6,5.6,1.6c2.2,0,3.8-0.4,4.9-1.2C24.6,43.5,25.1,42.5,25.1,41.1z"/>
	<path class="st0" d="M54.1,10.4l0.4,4.7c3-3.7,7.1-5.5,12.2-5.5c5.5,0,9.2,2.2,11.3,6.5c3-4.3,7.2-6.5,12.7-6.5c4.6,0,8,1.3,10.3,4
		c2.2,2.7,3.4,6.7,3.4,12.1v27.1H92.9v-27c0-2.4-0.5-4.2-1.4-5.3c-0.9-1.1-2.6-1.7-5-1.7c-3.4,0-5.8,1.6-7.1,4.9l0,29.1H68.1v-27
		c0-2.5-0.5-4.2-1.5-5.3c-1-1.1-2.6-1.6-4.9-1.6c-3.2,0-5.5,1.3-7,4v30H43.4V10.4H54.1z"/>
	<path class="st0" d="M137.5,52.8c-0.5-1-0.9-2.3-1.1-3.8c-2.7,3.1-6.3,4.6-10.7,4.6c-4.2,0-7.6-1.2-10.3-3.6s-4.1-5.4-4.1-9.1
		c0-4.5,1.7-7.9,5-10.3c3.3-2.4,8.1-3.6,14.4-3.6h5.2v-2.4c0-2-0.5-3.5-1.5-4.7c-1-1.2-2.6-1.8-4.8-1.8c-1.9,0-3.4,0.5-4.5,1.4
		c-1.1,0.9-1.6,2.2-1.6,3.8h-11.3c0-2.5,0.8-4.7,2.3-6.8c1.5-2.1,3.7-3.7,6.4-4.9c2.8-1.2,5.9-1.8,9.3-1.8c5.2,0,9.4,1.3,12.4,3.9
		c3.1,2.6,4.6,6.3,4.6,11.1V43c0,4,0.6,7.1,1.7,9.1v0.7H137.5z M128.2,45c1.7,0,3.2-0.4,4.6-1.1c1.4-0.7,2.5-1.7,3.1-3v-7.3h-4.2
		c-5.7,0-8.7,2-9.1,5.9l0,0.7c0,1.4,0.5,2.6,1.5,3.5C125.1,44.5,126.4,45,128.2,45z"/>
	<path class="st0" d="M179.8,21.1c-1.5-0.2-2.9-0.3-4.1-0.3c-4.3,0-7.1,1.5-8.4,4.4v27.8H156V10.4h10.7l0.3,5.1
		c2.3-3.9,5.4-5.8,9.4-5.8c1.3,0,2.4,0.2,3.5,0.5L179.8,21.1z"/>
	<path class="st0" d="M200.8,0v10.4h7.3v8.3h-7.3v21.2c0,1.6,0.3,2.7,0.9,3.4c0.6,0.7,1.8,1,3.4,1c1.3,0,2.4-0.1,3.3-0.3v8.6
		c-2.2,0.7-4.5,1-6.9,1c-7.9,0-12-4-12.2-12V18.7h-6.2v-8.3h6.2V0H200.8z"/>
	<path class="st0" d="M235.3,22.8c0-2.7,0.9-4.9,2.6-6.5c1.7-1.6,3.9-2.5,6.7-2.5c2.8,0,5.1,0.8,6.8,2.4s2.6,3.8,2.6,6.4v1.7
		c0,2.7-0.9,4.9-2.6,6.5c-1.7,1.6-4,2.5-6.7,2.5c-2.7,0-5-0.8-6.7-2.4c-1.7-1.6-2.6-3.8-2.6-6.6V22.8z"/>
	<path class="st0" d="M306.2,41.1c0-1.4-0.7-2.5-2.1-3.3c-1.4-0.8-3.6-1.5-6.6-2.1c-10.1-2.1-15.1-6.4-15.1-12.9
		c0-3.8,1.6-6.9,4.7-9.4c3.1-2.5,7.2-3.8,12.3-3.8c5.4,0,9.7,1.3,12.9,3.8s4.8,5.8,4.8,9.9h-11.3c0-1.6-0.5-3-1.6-4
		c-1-1.1-2.7-1.6-4.9-1.6c-1.9,0-3.4,0.4-4.4,1.3c-1,0.9-1.6,2-1.6,3.3c0,1.3,0.6,2.3,1.8,3c1.2,0.8,3.2,1.4,6,2
		c2.8,0.6,5.2,1.2,7.1,1.9c6,2.2,9,6,9,11.4c0,3.9-1.7,7-5,9.4c-3.3,2.4-7.6,3.6-12.9,3.6c-3.6,0-6.7-0.6-9.5-1.9
		c-2.8-1.3-4.9-3-6.5-5.2c-1.6-2.2-2.4-4.6-2.4-7.2h10.7c0.1,2,0.8,3.6,2.2,4.6c1.4,1.1,3.2,1.6,5.6,1.6c2.2,0,3.8-0.4,4.9-1.2
		C305.6,43.5,306.2,42.5,306.2,41.1z"/>
	<path class="st0" d="M344,53.6c-6.2,0-11.3-1.9-15.2-5.7c-3.9-3.8-5.9-8.9-5.9-15.2v-1.1c0-4.3,0.8-8.1,2.5-11.4s4-5.9,7-7.8
		c3-1.8,6.5-2.7,10.3-2.7c5.8,0,10.4,1.8,13.7,5.5s5,8.8,5,15.6v4.6h-27c0.4,2.8,1.5,5,3.3,6.7c1.8,1.7,4.2,2.5,7,2.5
		c4.4,0,7.8-1.6,10.2-4.7l5.6,6.2c-1.7,2.4-4,4.3-6.9,5.6C350.7,53,347.5,53.6,344,53.6z M342.7,18.8c-2.2,0-4.1,0.8-5.5,2.3
		s-2.3,3.7-2.7,6.5h15.8v-0.9c-0.1-2.5-0.7-4.5-2-5.8S345.1,18.8,342.7,18.8z"/>
	<path class="st0" d="M385.5,44.5c2.1,0,3.8-0.6,5.1-1.7c1.3-1.1,2-2.7,2-4.6h10.6c0,2.9-0.8,5.5-2.4,7.9c-1.5,2.4-3.7,4.2-6.3,5.6
		s-5.6,2-8.9,2c-6.1,0-10.8-1.9-14.3-5.8c-3.5-3.9-5.3-9.2-5.3-16v-0.7c0-6.5,1.7-11.7,5.2-15.6c3.5-3.9,8.2-5.8,14.3-5.8
		c5.3,0,9.6,1.5,12.8,4.5c3.2,3,4.8,7,4.9,12.1h-10.6c-0.1-2.2-0.7-4-2-5.4c-1.3-1.4-3-2.1-5.2-2.1c-2.6,0-4.6,1-6,2.9s-2,5-2,9.4
		v1.2c0,4.4,0.7,7.5,2,9.4S382.8,44.5,385.5,44.5z"/>
	<path class="st0" d="M435.1,48.5c-2.8,3.4-6.7,5.1-11.6,5.1c-4.5,0-8-1.3-10.4-3.9c-2.4-2.6-3.6-6.4-3.7-11.5V10.4h11.3v27.4
		c0,4.4,2,6.6,6,6.6c3.8,0,6.5-1.3,7.9-4V10.4h11.4v42.4h-10.7L435.1,48.5z"/>
	<path class="st0" d="M478.5,21.1c-1.5-0.2-2.9-0.3-4.1-0.3c-4.3,0-7.1,1.5-8.4,4.4v27.8h-11.3V10.4h10.7l0.3,5.1
		c2.3-3.9,5.4-5.8,9.4-5.8c1.3,0,2.4,0.2,3.5,0.5L478.5,21.1z"/>
	<path class="st0" d="M502.7,53.6c-6.2,0-11.3-1.9-15.2-5.7c-3.9-3.8-5.9-8.9-5.9-15.2v-1.1c0-4.3,0.8-8.1,2.5-11.4s4-5.9,7-7.8
		s6.5-2.7,10.3-2.7c5.8,0,10.4,1.8,13.7,5.5s5,8.8,5,15.6v4.6h-27c0.4,2.8,1.5,5,3.3,6.7c1.8,1.7,4.2,2.5,7,2.5
		c4.4,0,7.8-1.6,10.2-4.7l5.6,6.2c-1.7,2.4-4,4.3-6.9,5.6C509.5,53,506.3,53.6,502.7,53.6z M501.4,18.8c-2.2,0-4.1,0.8-5.5,2.3
		c-1.4,1.5-2.3,3.7-2.7,6.5H509v-0.9c-0.1-2.5-0.7-4.5-2-5.8S503.8,18.8,501.4,18.8z"/>
</g>
</svg>
