<?xml version="1.0" standalone="no"?>
<!DOCTYPE svg PUBLIC "-//W3C//DTD SVG 20010904//EN"
 "http://www.w3.org/TR/2001/REC-SVG-20010904/DTD/svg10.dtd">
<svg version="1.0" xmlns="http://www.w3.org/2000/svg"
 width="260.000000pt" height="260.000000pt" viewBox="0 0 260.000000 260.000000"
 preserveAspectRatio="xMidYMid meet">
<metadata>
Created by potrace 1.11, written by Peter Selinger 2001-2013
</metadata>
<g transform="translate(0.000000,260.000000) scale(0.100000,-0.100000)"
fill="#000000" stroke="none">
<path d="M0 1300 l0 -1300 1300 0 1300 0 0 1300 0 1300 -1300 0 -1300 0 0
-1300z m1563 918 c-6 -7 -83 -104 -172 -215 l-162 -203 -324 0 -325 0 0 215 0
215 496 0 c396 0 494 -3 487 -12z m527 -163 l0 -174 -595 -746 -595 -745 -205
0 -205 0 0 155 0 154 611 766 612 765 188 0 189 0 0 -175z m-20 -1450 l0 -215
-516 0 -516 0 34 43 c19 23 96 120 172 215 l138 172 344 0 344 0 0 -215z"/>
</g>
</svg>
